<?xml version="1.0" encoding="UTF-8" standalone="no"?>
<!-- Created with Inkscape (http://www.inkscape.org/) -->
<svg id="svg2" xmlns:rdf="http://www.w3.org/1999/02/22-rdf-syntax-ns#" xmlns="http://www.w3.org/2000/svg" height="63" width="287" version="1.1" xmlns:cc="http://creativecommons.org/ns#" xmlns:dc="http://purl.org/dc/elements/1.1/">
<metadata id="metadata7">
<rdf:RDF>
<cc:Work rdf:about="">
<dc:format>image/svg+xml</dc:format>
<dc:type rdf:resource="http://purl.org/dc/dcmitype/StillImage"/>
<dc:title/>
</cc:Work>
</rdf:RDF>
</metadata>
<g id="layer1" transform="translate(-206.50001,-500.7065)">
<rect id="rect2998" fill-rule="evenodd" height="63" width="287" y="500.71" x="206.5" fill="#FFF"/>
<g id="g2993" transform="matrix(1.0028531,0,0,-1.0028531,-61.078432,834.83636)">
<g id="g2995" fill-rule="evenodd" transform="translate(-1692,-1584)">
<path id="path2997" fill="#403c3a" d="m1958.8,1856.2,0,5.852,3.0078,0c2.2819,0,3.6986,0.2705,4.2501,0.8115,0.5514,0.541,0.8271,1.8683,0.8271,3.9818v30.421c0,2.0942-0.2757,3.4092-0.8271,3.945-0.5515,0.5358-1.9682,0.8037-4.2501,0.8037h-3.0078v5.852h50.82v-20.559h-5.852c-0.1508,5.8777-1.1105,9.7983-2.8791,11.762-1.7686,1.9635-5.3499,2.9452-10.744,2.9452h-12.403v-15.862h2.932c3.2332,0,5.3511,0.5597,6.3537,1.679s1.6291,3.691,1.8793,7.715l5.852,0.037v-25.909l-5.852,0.037c-0.2254,4.4299-0.8394,7.2894-1.842,8.5783-1.0026,1.289-3.1076,1.9334-6.3152,1.9334h-3.0078v-18.172h13.528c4.5174,0,7.6168,1.0466,9.2984,3.1396s2.7481,6.3852,3.1997,12.876h5.852v-21.868h-50.82z"/>
<path id="path2999" fill="#403c3a" d="m2012.6,1907.9,27.72,0,0-5.852-3.6166,0c-2.3108,0-3.7488-0.2755-4.3138-0.8265-0.5651-0.5511-0.8476-1.8661-0.8476-3.9451v-35.191h9.643c3.4337,0,6.0026,0.2948,7.7066,0.8843,1.7041,0.5896,2.9323,1.5737,3.6846,2.9525,0.7267,1.3299,1.2655,2.9478,1.6164,4.854s0.5264,4.1883,0.5264,6.8464v0.9408h5.929v-22.33h-48.048v5.852h3.0078c2.2819,0,3.6986,0.2697,4.25,0.8091,0.5515,0.5394,0.8272,1.8623,0.8272,3.9685v30.414c0,2.1039-0.2757,3.4251-0.8272,3.9637-0.5514,0.5386-1.9681,0.8079-4.25,0.8079h-3.0078v5.852z"/>
<path id="path3001" fill="#403c3a" d="m2095.5,1885.4,5.1614,0c4.7363,0,8.0632,0.6321,9.9805,1.8962,1.9174,1.264,2.8761,3.3976,2.8761,6.4006,0,3.0792-0.9212,5.2382-2.7636,6.477-1.8423,1.2388-5.4076,1.8582-10.696,1.8582h-4.5587v-16.632zm0-18.557c0-2.0798,0.2826-3.3954,0.8476-3.9468,0.5651-0.5514,2.003-0.8272,4.3138-0.8272h3.6166v-5.852h-27.72v5.852h3.0078c2.282,0,3.6986,0.2693,4.2501,0.8079,0.5514,0.5386,0.8271,1.8607,0.8271,3.9661v30.421c0,2.1023-0.2757,3.4225-0.8271,3.9607-0.5515,0.5382-1.9681,0.8073-4.2501,0.8073h-3.0078v5.852h27.193c6.9661,0,12.222-1.1917,15.768-3.5751,3.5456-2.3834,5.3184-5.9207,5.3184-10.612,0-2.5587-0.4824-4.7913-1.4473-6.6978-0.9649-1.9066-2.4247-3.5248-4.3794-4.8546-1.4029-0.928-3.3573-1.5928-5.8634-1.9942-2.5062-0.4015-6.0022-0.6022-10.488-0.6022h-7.1586v-12.705z"/>
<path id="path3003" fill="#403c3a" d="m2201.5,1856.2,0,21.329,6.0084,0c0.8277-5.1373,2.7339-9.0653,5.7184-11.784,2.9846-2.7186,6.8594-4.078,11.625-4.078,3.4361,0,6.0634,0.5763,7.8817,1.7289s2.7275,2.8189,2.7275,4.999c0,1.9547-0.696,3.546-2.0881,4.774-1.392,1.228-3.6184,2.1929-6.6791,2.8947l-8.3918,1.9539c-6.014,1.4036-10.343,3.3022-12.986,5.6956-2.6437,2.3934-3.9655,5.5949-3.9655,9.6045,0,4.8623,1.6924,8.7594,5.0771,11.691,3.3848,2.932,7.9106,4.398,13.577,4.398,2.8081,0,5.4343-0.4321,7.8787-1.2963,2.4443-0.8643,4.8199-2.1984,7.1267-4.0022l2.6974,3.7585h4.6068v-19.558h-5.8424c-0.8775,4.6898-2.7271,8.3263-5.5488,10.909-2.8217,2.5831-6.3645,3.8746-10.628,3.8746-3.1097,0-5.5174-0.5831-7.223-1.7493s-2.5584-2.7901-2.5584-4.8715c0-1.7557,0.6021-3.1604,1.8065-4.2139,1.2043-1.0535,3.1359-1.8811,5.7948-2.4827l10.423-2.405c5.5159-1.2537,9.6402-3.2152,12.373-5.8845,2.7327-2.6693,4.0991-6.0718,4.0991-10.207,0-4.8879-1.7931-8.8797-5.3792-11.975-3.5861-3.0957-8.2378-4.6435-13.955-4.6435-2.8835,0-5.7422,0.5274-8.5759,1.5821-2.8338,1.0548-5.7052,2.6621-8.6144,4.8222l-1.6892-4.8643h-5.2949z"/>
<path id="path3005" fill="#403c3a" d="m2149.2,1878.8-6.6918,17.863-6.0902-17.863,12.782,0zm-33.633-22.561,0,5.852,1.6037,0c1.9547,0,3.4145,0.3453,4.3794,1.0359s1.7983,2.0157,2.5001,3.9751l14.399,40.804h10.826l15.413-40.804c0.8775-2.3862,1.6858-3.8179,2.4249-4.2951,0.7392-0.4773,2.011-0.7159,3.8157-0.7159h0.7143c2.2835,0,3.7012,0.2693,4.253,0.8079s0.8277,1.8607,0.8277,3.9661v30.415c0,2.1055-0.2759,3.4275-0.8277,3.9661s-1.9695,0.8079-4.253,0.8079h-3.3123v5.852h27.874v-5.852h-3.2978c-2.298,0-3.7217-0.2693-4.2711-0.8079s-0.8242-1.8606-0.8242-3.9661v-30.415c0-2.1054,0.2748-3.4275,0.8242-3.9661s1.9731-0.8079,4.2711-0.8079h3.2978v-5.852h-50.464v5.852h4.1737c1.6787,0,2.8127,0.1444,3.4018,0.4331,0.5891,0.2888,0.8837,0.8102,0.8837,1.5641,0,0.2759-0.044,0.5897-0.1318,0.9415-0.088,0.3517-0.2697,0.8792-0.5456,1.5827l-2.2173,6.1046h-17.03l-2.2173-6.5185c-0.05-0.1757-0.1376-0.4396-0.2635-0.7917-0.2503-0.7282-0.3754-1.2432-0.3754-1.5448,0-0.6785,0.2443-1.1433,0.7327-1.3944,0.4885-0.251,1.6351-0.3766,3.4398-0.3766h3.9847v-5.852h-24.01z"/>
<path id="path3007" fill="#099ad3" d="m2168.3,1910.3,27.882,6.9212-0.01-6.9212-27.876,0z"/>
</g>
</g>
</g>
</svg>
