<?xml version="1.0" encoding="utf-8"?>
<!-- Generator: Adobe Illustrator 18.1.1, SVG Export Plug-In . SVG Version: 6.00 Build 0)  -->
<svg version="1.1" id="Layer_1" xmlns="http://www.w3.org/2000/svg" xmlns:xlink="http://www.w3.org/1999/xlink" x="0px" y="0px"
	 viewBox="0 0 140 70" enable-background="new 0 0 140 70" xml:space="preserve">
<g>
	<path fill="#268C8D" d="M84.3,33.3c-2.5-2.4-6.4-4.3-11.7-5.7c-3.4-0.9-6.1-1.9-8-2.9c-0.4-0.2-0.7-0.4-1-0.7
		c-1.3-1-1.9-2.5-1.9-4.4c0-1.7,0.7-3.1,2-4.1c1.3-1,3.1-1.5,5.4-1.5c2.9,0,5.6,1.1,8.2,3.4c0.9,0.9,1.8,1.8,2.5,2.8
		c1.2,1.6,2.2,3.4,2.8,5.4h0.7h2.4L85,11.6L85,10.2h-3.4l-0.9,2.7c-1.5-0.7-3.5-1.3-5.7-1.8c-2.3-0.6-4.8-0.8-7.5-0.8
		c-5.7,0-10.3,1.3-13.8,4s-5.3,6.1-5.3,10.4c0,2.3,0.4,4.3,1.2,6c0.7,1.4,1.5,2.6,2.5,3.6c0.2,0.2,0.5,0.5,0.7,0.7
		c1.5,1.3,3,2.3,4.5,2.9c1.4,0.6,3.2,1.2,5.2,1.8c2,0.6,3.7,1.1,5.1,1.6c1.4,0.4,2.7,0.9,3.8,1.6c1,0.6,1.9,1.3,2.5,2.1
		c0.1,0.1,0.2,0.3,0.3,0.5c0.4,0.7,0.6,1.6,0.6,2.5c0,2.3-0.7,3.9-2,5c-1.3,1.1-3.3,1.6-6,1.6c-2.1,0-4-0.5-5.8-1.4
		c-1.8-0.9-3.4-2.1-4.8-3.5c-0.2-0.2-0.4-0.5-0.7-0.7c-1.1-1.2-2-2.5-2.9-3.9c-0.7-1.1-1.2-2.2-1.7-3.2c-0.2-0.5-0.4-1-0.6-1.5H47
		l0.2,5.4L44,43.3c-1.6,2.4-3.5,4.4-5.7,6c-2.2,1.6-4.7,2.4-7.5,2.4c-4.4,0-7.7-1.2-10-3.5c-0.4-0.4-0.8-0.9-1.2-1.3
		c-2.3-3.3-3.5-8-3.5-14.2h30.1v-3c0-2.6-0.4-5.1-1.2-7.4c-0.5-1.7-1.3-3.2-2.4-4.5c-0.4-0.6-0.9-1.1-1.3-1.6
		c-1.8-1.8-4-3.3-6.6-4.3c-2.7-1-6.1-1.6-10.3-1.6c-3.8,0-7.2,0.7-10.3,2c-3.1,1.3-5.6,3.1-7.6,5.3c-2.1,2.2-3.6,4.8-4.7,7.6
		C0.6,27.8,0,30.8,0,33.9c0,3.4,0.5,6.6,1.5,9.6c1,2.8,2.4,5.2,4.4,7.3C6,50.8,6.1,51,6.2,51.1c2.1,2.2,4.7,3.9,7.9,5.2
		c3.2,1.3,7,1.9,11.4,1.9c2.6,0,5-0.3,7-0.9c2-0.6,4.1-1.5,6-2.6c1.9-1.1,3.5-2.4,5-3.9c1.4-1.4,2.5-2.9,3.5-4.5
		c0-0.1,0.1-0.1,0.1-0.2l0,0.2l0.1,2.9l0.3,8.1h1.2h2.3l1.3-3.1c1.5,1,3.6,1.9,6.4,2.8c2.7,0.9,5.6,1.3,8.5,1.3
		c6.2,0,11.1-1.4,15-4.1c3.8-2.7,5.7-6.6,5.7-11.6c0-2.9-0.8-5.5-2.3-7.6C85.2,34.4,84.8,33.8,84.3,33.3z M18.2,17.3
		c1.4-2.4,3.2-3.6,5.5-3.6c1.3,0,2.4,0.4,3.3,1.1c0.5,0.4,0.9,0.9,1.2,1.5c0.3,0.5,0.6,1.1,0.8,1.8c0.4,1.2,0.8,2.8,0.9,4.7
		s0.3,3.8,0.3,5.6l-13,0.2l-1.3,0C16.1,23.5,16.9,19.7,18.2,17.3z"/>
	<path fill="#268C8D" d="M135.8,52.3c-1.1,0-1.9-0.2-2.4-0.4c-0.2-0.1-0.4-0.2-0.6-0.4c-0.5-0.4-0.9-0.8-1.2-1.4
		c-0.4-0.8-0.6-1.9-0.6-3.2c0-1.5,0.1-4.6,0.2-9.3c0.1-4.7,0.2-8.8,0.2-12.2c0-3.3-0.5-5.9-1.6-7.9c-0.3-0.5-0.5-0.9-0.8-1.4
		c-1-1.4-2.1-2.5-3.6-3.3c-1.9-1.1-4.1-1.8-6.5-2.2c-2.4-0.3-5.1-0.5-7.9-0.5c-2.1,0-4.3,0.3-6.8,0.8c-2.4,0.5-4.6,1.2-6.5,2.1
		c-1.9,0.9-3.5,2-4.8,3.4c-1.3,1.4-2,2.9-2,4.6c0,2,0.6,3.6,1.9,4.8c0.1,0.1,0.2,0.1,0.2,0.2c1.3,1.1,3.1,1.7,5.5,1.7
		c1.8,0,3.1-0.2,3.9-0.5c0.8-0.3,1.6-0.8,2.3-1.4c0.5-0.5,0.9-1.1,1.2-1.8c0.3-0.8,0.4-1.4,0.4-1.9c0-1.2-0.2-2.4-0.6-3.6
		c-0.4-1.2-0.7-2.2-0.8-2.8c0.5-0.4,1.2-0.8,2.1-1.2c0.9-0.4,2-0.6,3.3-0.6c1.5,0,2.6,0.3,3.5,1c0.7,0.5,1.2,1.1,1.6,1.8
		c0.1,0.2,0.2,0.4,0.3,0.7c0.4,0.9,0.6,1.9,0.8,3.2c0.1,1.2,0.2,2.3,0.2,3v4.4c-1.7,0.9-4.5,1.8-8.2,2.9c-3.8,1.1-7,2.1-9.6,3.1
		c-1.4,0.5-2.7,1.1-3.9,1.8c-1.2,0.6-2.2,1.4-3.1,2.4c-1,1.1-1.7,2.3-2.3,3.7c-0.1,0.4-0.3,0.8-0.4,1.2c-0.3,1.1-0.4,2.4-0.4,3.9
		c0,0.4,0,0.7,0,1.1c0.2,2.7,1.2,4.9,3,6.6c0.2,0.2,0.4,0.4,0.6,0.6c2.4,2.1,5.4,3.1,8.8,3.1c2.3,0,4.1-0.2,5.4-0.5
		c1.3-0.3,2.6-0.8,4-1.5c1.1-0.5,2.1-1.1,3-1.9c0.9-0.7,1.9-1.6,2.9-2.6h0.3c0.2,0.6,0.4,1.2,0.7,1.7c0.4,0.8,1,1.5,1.6,2.1
		c0.4,0.3,0.7,0.6,1.2,0.9c1.7,1.1,4.4,1.7,8.1,1.7c2,0,3.9-0.2,5.7-0.7c1.8-0.5,3.3-1,4.6-1.6v-1.9v-1.5
		C137.9,52.4,136.9,52.4,135.8,52.3z M116.6,33.9l-0.2,13.6c-0.8,1-1.7,1.9-2.8,2.5c-1.1,0.7-2.4,1-4.1,1c-1.3,0-2.5-0.4-3.4-1.2
		c-0.2-0.1-0.3-0.3-0.5-0.4c-1.1-1.1-1.6-2.8-1.6-5.2c0-1.8,0.3-3.4,0.9-4.7c0.6-1.3,1.5-2.4,2.6-3.3c1-0.8,2.4-1.6,4-2.4
		c1.6-0.7,3.3-1.4,5-2L116.6,33.9z"/>
</g>
<g>
	<path d="M47.1,46.2c-1,1.6-2.2,3.1-3.5,4.5c-1.5,1.5-3.1,2.9-5,3.9c-2,1.2-4,2-6,2.6c-2,0.6-4.4,0.9-7,0.9c-4.4,0-8.2-0.6-11.4-1.9
		c-3.2-1.3-5.8-3-7.9-5.2C6.1,51,6,50.8,5.9,50.7c0.5,0.6,1,1.2,1.6,1.8c2.1,2.2,4.7,3.9,7.9,5.2c3.2,1.3,7,1.9,11.4,1.9
		c2.6,0,5-0.3,7-0.9c2-0.6,4.1-1.5,6-2.6c1.9-1.1,3.5-2.4,5-3.9c0.9-1,1.7-2,2.5-3l-0.1-2.9L47.1,46.2z"/>
	<path d="M19.5,18.8c1.4-2.4,3.2-3.6,5.5-3.6c1.3,0,2.4,0.4,3.3,1.1c-0.4-0.6-0.8-1.1-1.2-1.5c-0.9-0.7-2-1.1-3.3-1.1
		c-2.3,0-4.1,1.2-5.5,3.6c-1.4,2.4-2.1,6.1-2.2,11.3l1.3,0C17.5,24.2,18.3,20.9,19.5,18.8z"/>
	<path d="M42.6,17.5c1,1.4,1.8,2.9,2.4,4.5c0.8,2.4,1.2,4.8,1.2,7.4v3H16c0,6.2,1.2,11,3.5,14.2c0.3,0.5,0.7,0.9,1.2,1.3
		c-2.3-3.3-3.4-7.9-3.4-14.1h30.1v-3c0-2.6-0.4-5.1-1.2-7.4C45.5,21.2,44.3,19.2,42.6,17.5z"/>
	<path d="M63.6,41.1c2,0.6,3.7,1.1,5.1,1.6c1.4,0.4,2.7,0.9,3.8,1.6c0.6,0.3,1.1,0.7,1.5,1c-0.1-0.2-0.2-0.3-0.3-0.5
		c-0.6-0.8-1.4-1.5-2.5-2.1c-1.2-0.6-2.4-1.1-3.8-1.6c-1.4-0.4-3.1-0.9-5.1-1.6c-2-0.6-3.8-1.2-5.2-1.8c-1.4-0.6-2.9-1.6-4.5-2.9
		c-0.2-0.2-0.5-0.5-0.7-0.7c0.6,0.8,1.2,1.5,1.9,2.2c1.5,1.3,3,2.3,4.5,2.9C59.9,39.9,61.6,40.5,63.6,41.1z"/>
	<path d="M85.7,34.9c1.5,2.1,2.3,4.7,2.3,7.6c0,5-1.9,8.9-5.7,11.6c-3.8,2.7-8.8,4.1-15,4.1c-2.9,0-5.7-0.4-8.5-1.3
		c-2.8-0.9-4.9-1.8-6.4-2.8l-1.3,3.1h-2.3l0.1,1.5h3.5l1.3-3.1c1.5,1,3.6,1.9,6.4,2.8c2.7,0.9,5.6,1.3,8.5,1.3
		c6.2,0,11.1-1.4,15-4.1c2.8-2,4.5-4.6,5.3-7.8c0-0.4,0-0.7,0-1.1c0-1.4,0.1-2.7,0.4-3.9C88.9,39.7,87.8,37.1,85.7,34.9z"/>
	<path d="M79.7,20.3c-0.7-1-1.6-1.9-2.5-2.8c-2.5-2.3-5.2-3.4-8.2-3.4c-2.3,0-4.1,0.5-5.4,1.5c-1.3,1-2,2.3-2,4.1
		c0,1.9,0.6,3.3,1.9,4.4c-0.4-0.8-0.7-1.8-0.7-2.9c0-1.7,0.7-3.1,2-4.1c1.3-1,3.1-1.5,5.4-1.5c2.9,0,5.6,1.1,8.2,3.4
		C78.9,19.4,79.3,19.9,79.7,20.3z"/>
	<path d="M83.2,25.7c0.2,0.5,0.4,1,0.6,1.5h3.1l-0.7-15.6H85l0.6,14.1H83.2z"/>
	<path d="M51.5,41.7h-0.7c0.4,1,1,2,1.7,3.2c0.9,1.4,1.8,2.7,2.9,3.9c-0.6-0.8-1.2-1.6-1.7-2.4C52.7,44.6,52,43.1,51.5,41.7z"/>
	<path d="M108.9,37.8c1-0.8,2.4-1.6,4-2.4c1.2-0.6,2.5-1.1,3.7-1.5l0-1.9c-1.7,0.6-3.3,1.2-5,2c-1.6,0.7-3,1.5-4,2.4
		c-1.1,0.9-2,1.9-2.6,3.3c-0.6,1.3-0.9,2.9-0.9,4.7c0,2.4,0.5,4.1,1.6,5.2c0.2,0.2,0.3,0.3,0.5,0.4c-0.6-1-0.8-2.4-0.8-4.1
		c0-1.8,0.3-3.4,0.9-4.7C106.9,39.7,107.8,38.6,108.9,37.8z"/>
	<path d="M138.8,53.9v1.9c-1.3,0.6-2.8,1.1-4.6,1.6c-1.8,0.5-3.7,0.7-5.7,0.7c-3.7,0-6.3-0.6-8.1-1.7c-0.4-0.3-0.8-0.6-1.2-0.9
		c0.6,0.9,1.4,1.7,2.4,2.4c1.7,1.1,4.4,1.7,8.1,1.7c2,0,3.9-0.2,5.7-0.7c1.8-0.5,3.3-1,4.6-1.6v-3.3
		C139.6,53.9,139.2,53.9,138.8,53.9z"/>
	<path d="M104.6,25.6c-0.7,0.6-1.5,1.1-2.3,1.4c-0.9,0.3-2.2,0.5-3.9,0.5c-2.4,0-4.2-0.6-5.5-1.7c0.3,0.5,0.6,0.9,1,1.3
		c1.3,1.2,3.2,1.8,5.7,1.8c1.8,0,3.1-0.2,3.9-0.5c0.8-0.3,1.6-0.8,2.3-1.4c0.5-0.5,0.9-1.1,1.2-1.8c0.3-0.8,0.4-1.4,0.4-1.9
		c0-1.2-0.2-2.4-0.6-3.6c-0.4-1.2-0.7-2.2-0.8-2.8c0.5-0.4,1.2-0.8,2.1-1.2c0.9-0.4,2-0.6,3.3-0.6c1.5,0,2.6,0.3,3.5,1
		c0.1,0.1,0.3,0.2,0.4,0.3c-0.4-0.7-0.9-1.3-1.6-1.8c-0.9-0.7-2.1-1-3.5-1c-1.3,0-2.4,0.2-3.3,0.6c-0.9,0.4-1.6,0.8-2.1,1.2
		c0.1,0.6,0.3,1.5,0.8,2.8c0.4,1.2,0.6,2.5,0.6,3.6c0,0.5-0.1,1.2-0.4,1.9C105.5,24.6,105.1,25.2,104.6,25.6z"/>
	<path d="M116.6,51.6c-1,1-2,1.9-2.9,2.6c-0.9,0.7-1.9,1.4-3,1.9c-1.4,0.7-2.7,1.2-4,1.5c-1.3,0.3-3.1,0.5-5.4,0.5
		c-3.5,0-6.4-1-8.8-3.1c-0.2-0.2-0.4-0.4-0.6-0.6c0.5,0.7,1.1,1.4,1.8,2c2.4,2.1,5.4,3.1,8.8,3.1c2.3,0,4.1-0.2,5.4-0.5
		c1.3-0.3,2.6-0.8,4-1.5c1.1-0.5,2.1-1.1,3-1.9c0.9-0.7,1.7-1.5,2.7-2.4c-0.3-0.5-0.5-1.1-0.7-1.7H116.6z"/>
	<path d="M131.4,25.3c0,3.4-0.1,7.5-0.2,12.2c-0.1,4.7-0.2,7.8-0.2,9.3c0,1.4,0.2,2.5,0.6,3.2c0.3,0.6,0.7,1,1.2,1.4
		c-0.4-0.8-0.6-1.8-0.6-3.2c0-1.5,0.1-4.6,0.2-9.3c0.1-4.7,0.2-8.8,0.2-12.2c0-3.3-0.5-5.9-1.6-7.9c-0.6-1.1-1.3-2-2.1-2.8
		c0.3,0.4,0.6,0.9,0.8,1.4C130.8,19.4,131.4,22.1,131.4,25.3z"/>
	<polygon points="15.6,5.5 13.5,5.5 13.5,4.1 15.5,4.1 15.5,2.9 13.5,2.9 13.5,1.7 15.6,1.7 15.6,0.4 12.1,0.4 12.1,6.8 15.6,6.8 	
		"/>
	<path d="M18.4,6.9c0.3,0,0.7-0.1,1-0.3V5.2c-0.3,0.2-0.5,0.3-0.8,0.3c-0.3,0-0.6-0.2-0.8-0.5c-0.2-0.3-0.3-0.8-0.3-1.4
		c0-0.7,0.1-1.2,0.3-1.5c0.2-0.3,0.5-0.5,0.8-0.5c0.3,0,0.5,0.1,0.8,0.4V0.6c-0.3-0.2-0.7-0.2-0.9-0.2c-0.5,0-0.9,0.2-1.3,0.5
		c-0.4,0.3-0.6,0.7-0.8,1.2c-0.2,0.5-0.3,1.1-0.3,1.6c0,0.9,0.2,1.7,0.6,2.3S17.7,6.9,18.4,6.9z"/>
	<path d="M22.2,6.9c0.7,0,1.3-0.3,1.7-0.9c0.4-0.6,0.7-1.4,0.7-2.4c0-1-0.2-1.8-0.7-2.4s-1-0.9-1.8-0.9c-0.4,0-0.7,0.1-1.1,0.4
		c-0.3,0.3-0.6,0.7-0.8,1.2C20,2.4,19.9,3,19.9,3.6c0,0.9,0.2,1.7,0.6,2.3C20.9,6.6,21.5,6.9,22.2,6.9z M21.6,2.2
		c0.2-0.3,0.4-0.5,0.7-0.5c0.2,0,0.4,0.2,0.6,0.5C23,2.5,23.1,3,23.1,3.6c0,0.6-0.1,1.1-0.2,1.4c-0.2,0.4-0.4,0.5-0.6,0.5
		c-0.3,0-0.5-0.2-0.6-0.5c-0.2-0.3-0.2-0.8-0.2-1.4C21.4,3,21.5,2.5,21.6,2.2z"/>
	<polygon points="28.6,5.5 26.6,5.5 26.6,0.4 25.2,0.4 25.2,6.8 28.6,6.8 	"/>
	<path d="M31,6.9c0.7,0,1.3-0.3,1.7-0.9c0.4-0.6,0.7-1.4,0.7-2.4c0-1-0.2-1.8-0.7-2.4c-0.4-0.6-1-0.9-1.8-0.9
		c-0.4,0-0.7,0.1-1.1,0.4C29.4,1,29.2,1.4,29,1.9c-0.2,0.5-0.3,1.1-0.3,1.7c0,0.9,0.2,1.7,0.6,2.3S30.2,6.9,31,6.9z M30.4,2.2
		c0.2-0.3,0.4-0.5,0.7-0.5c0.2,0,0.4,0.2,0.6,0.5c0.2,0.3,0.2,0.8,0.2,1.4c0,0.6-0.1,1.1-0.2,1.4c-0.2,0.4-0.4,0.5-0.6,0.5
		c-0.3,0-0.5-0.2-0.6-0.5c-0.2-0.3-0.2-0.8-0.2-1.4C30.1,3,30.2,2.5,30.4,2.2z"/>
	<path d="M34.6,6.5c0.3,0.3,0.6,0.4,1,0.4c0.2,0,0.4,0,0.5-0.1c0.2-0.1,0.3-0.2,0.5-0.4L37,6.8h0.7V3.4h-1.8v1.1h0.5v0.4
		c0,0.2,0,0.4-0.1,0.5c-0.1,0.1-0.1,0.2-0.3,0.2c-0.2,0-0.4-0.2-0.6-0.5c-0.1-0.3-0.2-0.8-0.2-1.4c0-0.6,0.1-1.1,0.3-1.5
		c0.2-0.4,0.5-0.6,0.9-0.6c0.3,0,0.7,0.2,1,0.5V0.7c-0.4-0.2-0.8-0.4-1.3-0.4c-0.7,0-1.3,0.3-1.7,0.9c-0.4,0.6-0.6,1.4-0.6,2.4
		c0,0.6,0.1,1.1,0.2,1.7C34.1,5.8,34.3,6.2,34.6,6.5z"/>
	<rect x="38.5" y="0.4" width="1.5" height="6.4"/>
	<path d="M42.9,6.9c0.3,0,0.7-0.1,1-0.3V5.2c-0.3,0.2-0.5,0.3-0.8,0.3c-0.3,0-0.6-0.2-0.8-0.5c-0.2-0.3-0.3-0.8-0.3-1.4
		c0-0.7,0.1-1.2,0.3-1.5c0.2-0.3,0.5-0.5,0.8-0.5c0.3,0,0.5,0.1,0.8,0.4V0.6c-0.3-0.2-0.7-0.2-0.9-0.2c-0.5,0-0.9,0.2-1.3,0.5
		C41.3,1.1,41,1.5,40.9,2c-0.2,0.5-0.3,1.1-0.3,1.6c0,0.9,0.2,1.7,0.6,2.3S42.2,6.9,42.9,6.9z"/>
	<path d="M45.9,5.5h1.2l0.2,1.3h1.6l-1.6-6.4h-1.4l-1.6,6.4h1.5L45.9,5.5z M46.5,2.2l0.4,2.2h-0.8L46.5,2.2z"/>
	<polygon points="52.8,5.5 50.8,5.5 50.8,0.4 49.3,0.4 49.3,6.8 52.8,6.8 	"/>
	<path d="M58.5,6.3c0.4-0.4,0.6-0.9,0.6-1.5c0-0.5-0.1-0.8-0.4-1.1c-0.2-0.3-0.6-0.5-1.1-0.7c-0.3-0.1-0.5-0.2-0.6-0.4
		C57,2.4,57,2.3,57,2.2C57,2,57,1.9,57.1,1.8c0.1-0.1,0.3-0.2,0.5-0.2c0.4,0,0.7,0.2,1.1,0.6V0.7c-0.4-0.2-0.9-0.3-1.3-0.3
		c-0.6,0-1.1,0.2-1.4,0.5c-0.4,0.4-0.5,0.8-0.5,1.3c0,0.4,0.1,0.8,0.3,1c0.2,0.3,0.6,0.5,1,0.7c0.3,0.2,0.5,0.3,0.6,0.4
		c0.1,0.1,0.2,0.3,0.2,0.4c0,0.2-0.1,0.4-0.2,0.5c-0.2,0.1-0.3,0.2-0.6,0.2c-0.4,0-0.9-0.2-1.4-0.7v1.6c0.5,0.3,1,0.4,1.5,0.4
		C57.6,6.9,58.1,6.7,58.5,6.3z"/>
	<path d="M61.8,6.9c0.7,0,1.3-0.3,1.7-0.9c0.4-0.6,0.7-1.4,0.7-2.4c0-1-0.2-1.8-0.7-2.4c-0.4-0.6-1-0.9-1.8-0.9
		c-0.4,0-0.7,0.1-1.1,0.4C60.3,1,60,1.4,59.8,1.9c-0.2,0.5-0.3,1.1-0.3,1.7c0,0.9,0.2,1.7,0.6,2.3S61.1,6.9,61.8,6.9z M61.2,2.2
		c0.2-0.3,0.4-0.5,0.7-0.5c0.2,0,0.4,0.2,0.6,0.5c0.2,0.3,0.2,0.8,0.2,1.4c0,0.6-0.1,1.1-0.2,1.4c-0.2,0.4-0.4,0.5-0.6,0.5
		c-0.3,0-0.5-0.2-0.6-0.5C61.1,4.7,61,4.2,61,3.6C61,3,61.1,2.5,61.2,2.2z"/>
	<path d="M66.9,6.9c0.3,0,0.7-0.1,1-0.3V5.2c-0.3,0.2-0.5,0.3-0.8,0.3c-0.3,0-0.6-0.2-0.8-0.5c-0.2-0.3-0.3-0.8-0.3-1.4
		c0-0.7,0.1-1.2,0.3-1.5c0.2-0.3,0.5-0.5,0.8-0.5c0.3,0,0.5,0.1,0.8,0.4V0.6c-0.3-0.2-0.7-0.2-0.9-0.2c-0.5,0-0.9,0.2-1.3,0.5
		C65.3,1.1,65,1.5,64.9,2c-0.2,0.5-0.3,1.1-0.3,1.6c0,0.9,0.2,1.7,0.6,2.3C65.6,6.6,66.2,6.9,66.9,6.9z"/>
	<rect x="68.6" y="0.4" width="1.5" height="6.4"/>
	<polygon points="74.5,5.5 72.4,5.5 72.4,4.1 74.4,4.1 74.4,2.9 72.4,2.9 72.4,1.7 74.5,1.7 74.5,0.4 71,0.4 71,6.8 74.5,6.8 	"/>
	<polygon points="76.2,6.8 77.7,6.8 77.7,1.7 78.9,1.7 78.9,0.4 75,0.4 75,1.7 76.2,1.7 	"/>
	<polygon points="80.6,6.8 82.1,6.8 82.1,3.9 83.5,0.4 81.9,0.4 81.4,2.4 80.8,0.4 79.2,0.4 80.6,3.9 	"/>
	<path d="M88.5,0.3c-0.4,0-0.7,0.1-1.1,0.4c-0.3,0.3-0.6,0.7-0.8,1.2c-0.2,0.5-0.3,1.1-0.3,1.7c0,0.9,0.2,1.7,0.6,2.3
		c0.4,0.6,1,0.9,1.7,0.9c0.7,0,1.3-0.3,1.7-0.9C90.7,5.4,91,4.6,91,3.6c0-1-0.2-1.8-0.7-2.4C89.9,0.6,89.3,0.3,88.5,0.3z M89.3,5
		c-0.2,0.4-0.4,0.5-0.6,0.5c-0.3,0-0.5-0.2-0.6-0.5c-0.2-0.3-0.2-0.8-0.2-1.4c0-0.6,0.1-1.1,0.2-1.4c0.2-0.3,0.4-0.5,0.7-0.5
		c0.2,0,0.4,0.2,0.6,0.5c0.2,0.3,0.2,0.8,0.2,1.4C89.5,4.2,89.4,4.6,89.3,5z"/>
	<polygon points="93,4.3 94.9,4.3 94.9,3 93,3 93,1.7 95,1.7 95,0.4 91.6,0.4 91.6,6.8 93,6.8 	"/>
	<path d="M99.4,5.5h1.2l0.2,1.3h1.6l-1.6-6.4h-1.4l-1.6,6.4h1.5L99.4,5.5z M100,2.2l0.4,2.2h-0.8L100,2.2z"/>
	<path d="M104.3,4.4c0-0.6,0-1.3-0.1-1.8h0.1c0.1,0.3,0.2,0.7,0.4,1.3l0.6,1.9l0.6-1.9c0.2-0.5,0.3-1,0.4-1.3h0.1
		c0,0.6-0.1,1.2-0.1,1.8v2.4h1.4V0.4h-1.6l-0.9,2.4l-0.9-2.4h-1.6v6.4h1.4V4.4z"/>
	<polygon points="112.2,5.5 110.1,5.5 110.1,4.1 112,4.1 112,2.9 110.1,2.9 110.1,1.7 112.2,1.7 112.2,0.4 108.6,0.4 108.6,6.8 
		112.2,6.8 	"/>
	<path d="M114.3,4.2h0.1c0.2,0,0.3,0.1,0.4,0.2c0.1,0.1,0.2,0.4,0.2,0.7l0.2,1.8h1.6l-0.4-2c-0.1-0.6-0.5-1-1-1.1
		c0.4-0.2,0.8-0.4,1-0.7c0.2-0.3,0.3-0.6,0.3-1c0-0.5-0.2-0.9-0.5-1.1c-0.3-0.3-0.7-0.4-1.2-0.4h-2.2v6.4h1.4V4.2z M114.3,1.7h0.4
		c0.2,0,0.4,0.1,0.5,0.2c0.1,0.1,0.2,0.3,0.2,0.5c0,0.2-0.1,0.4-0.2,0.5C115,3,114.8,3,114.6,3h-0.3V1.7z"/>
	<rect x="117.4" y="0.4" width="1.5" height="6.4"/>
	<path d="M121.8,6.9c0.3,0,0.7-0.1,1-0.3V5.2c-0.3,0.2-0.5,0.3-0.8,0.3c-0.3,0-0.6-0.2-0.8-0.5c-0.2-0.3-0.3-0.8-0.3-1.4
		c0-0.7,0.1-1.2,0.3-1.5s0.5-0.5,0.8-0.5c0.3,0,0.5,0.1,0.8,0.4V0.6c-0.3-0.2-0.7-0.2-0.9-0.2c-0.5,0-0.9,0.2-1.3,0.5
		c-0.4,0.3-0.6,0.7-0.8,1.2s-0.3,1.1-0.3,1.6c0,0.9,0.2,1.7,0.6,2.3C120.6,6.6,121.1,6.9,121.8,6.9z"/>
	<path d="M124.9,5.5h1.2l0.2,1.3h1.6l-1.6-6.4h-1.4l-1.6,6.4h1.5L124.9,5.5z M125.5,2.2l0.4,2.2h-0.8L125.5,2.2z"/>
</g>
<g>
	<rect x="0.8" y="63.3" fill="#8CB9BB" width="138.4" height="6.7"/>
	<rect x="0.8" fill="#8CB9BB" width="9.6" height="6.7"/>
	<rect x="129.3" y="0.1" fill="#8CB9BB" width="9.7" height="6.7"/>
</g>
</svg>
