<svg xmlns="http://www.w3.org/2000/svg" xmlns:svg="http://www.w3.org/2000/svg" width="144" height="50"><title>Layer 1</title><path d="m71.62 23.78c-1.8-1.73-4.64-3.09-8.53-4.09 -2.52-0.65-4.48-1.35-5.88-2.09 -0.26-0.14-0.49-0.3-0.7-0.46 -0.93-0.74-1.4-1.78-1.4-3.12 0-1.24 0.48-2.21 1.44-2.9 0.96-0.7 2.27-1.04 3.95-1.04 2.13 0 4.12 0.82 5.97 2.46 0.69 0.62 1.31 1.27 1.85 1.98 0.9 1.17 1.59 2.46 2.06 3.88l0.5 0 1.79 0 -0.47-10.07 -0.05-1.05 -2.48 0 -0.68 1.92c-1.13-0.48-2.53-0.92-4.19-1.32 -1.66-0.4-3.48-0.6-5.46-0.6 -4.17 0-7.55 0.95-10.13 2.84s-3.86 4.37-3.86 7.44c0 1.65 0.29 3.08 0.88 4.27 0.48 0.98 1.1 1.83 1.84 2.58 0.17 0.17 0.33 0.33 0.51 0.49 1.13 0.96 2.22 1.66 3.28 2.1 1.05 0.45 2.32 0.89 3.8 1.32 1.48 0.44 2.72 0.81 3.74 1.11 1.01 0.31 1.94 0.67 2.79 1.11 0.76 0.41 1.36 0.9 1.79 1.47 0.08 0.11 0.15 0.22 0.21 0.34 0.29 0.51 0.44 1.11 0.44 1.82 0 1.61-0.48 2.8-1.45 3.57 -0.97 0.77-2.44 1.16-4.42 1.16 -1.5 0-2.91-0.34-4.22-1.01 -1.32-0.67-2.48-1.5-3.51-2.48 -0.16-0.16-0.32-0.34-0.48-0.51 -0.78-0.85-1.5-1.78-2.13-2.8 -0.5-0.81-0.9-1.56-1.21-2.25 -0.16-0.36-0.31-0.72-0.42-1.05l-2.38 0 0.14 3.86 -2.36-1.71c-1.15 1.72-2.54 3.14-4.17 4.26 -1.63 1.12-3.47 1.68-5.51 1.68 -3.18 0-5.62-0.85-7.34-2.53 -0.3-0.29-0.59-0.61-0.84-0.95 -1.72-2.33-2.58-5.72-2.58-10.18l22.05 0 0-2.12c0-1.85-0.28-3.61-0.85-5.3 -0.4-1.2-0.98-2.27-1.72-3.24 -0.3-0.4-0.63-0.78-0.98-1.14 -1.28-1.3-2.9-2.33-4.86-3.07 -1.96-0.74-4.46-1.11-7.5-1.11 -2.78 0-5.3 0.48-7.55 1.44 -2.25 0.96-4.11 2.21-5.59 3.75 -1.5 1.59-2.66 3.4-3.47 5.43 -0.82 2.03-1.22 4.16-1.22 6.38 0 2.46 0.38 4.73 1.13 6.83 0.71 1.99 1.78 3.73 3.18 5.22 0.08 0.08 0.15 0.16 0.23 0.24 1.52 1.54 3.45 2.77 5.79 3.69 2.34 0.91 5.11 1.37 8.33 1.37 1.94 0 3.65-0.21 5.14-0.64 1.49-0.42 2.96-1.05 4.42-1.87 1.37-0.78 2.59-1.72 3.67-2.82 1-1.02 1.85-2.1 2.58-3.24 0.02-0.04 0.05-0.07 0.07-0.11l0.01 0.16 0.07 2.1 0.2 5.8 0.87 0 1.67 0 0.98-2.22c1.11 0.7 2.67 1.35 4.68 1.97 2.01 0.62 4.07 0.93 6.18 0.93 4.5 0 8.15-0.98 10.94-2.93 2.79-1.96 4.19-4.72 4.19-8.28 0-2.11-0.57-3.91-1.68-5.43 -0.3-0.41-0.63-0.8-1.02-1.17zm-48.28-11.4c1-1.7 2.34-2.54 4.01-2.54 0.98 0 1.79 0.26 2.43 0.78 0.34 0.28 0.64 0.63 0.91 1.05 0.23 0.37 0.44 0.79 0.61 1.26 0.33 0.87 0.55 1.99 0.69 3.36 0.13 1.37 0.2 2.71 0.2 4.01l-9.52 0.12 -0.95 0.01c0.09-3.67 0.63-6.36 1.63-8.05z" fill="#268C8D"/><path d="m109.3 37.38c-0.79-0.03-1.38-0.14-1.74-0.31 -0.17-0.08-0.32-0.17-0.47-0.27 -0.38-0.26-0.67-0.59-0.89-1 -0.29-0.56-0.44-1.34-0.44-2.31 0-1.06 0.05-3.28 0.15-6.65 0.1-3.37 0.15-6.28 0.15-8.74 0-2.33-0.4-4.21-1.19-5.66 -0.19-0.34-0.39-0.66-0.61-0.97 -0.71-0.98-1.57-1.76-2.6-2.34 -1.41-0.78-3-1.3-4.76-1.55 -1.76-0.25-3.7-0.37-5.8-0.37 -1.52 0-3.17 0.18-4.96 0.54 -1.78 0.36-3.36 0.86-4.73 1.52 -1.39 0.63-2.57 1.43-3.54 2.4 -0.97 0.97-1.45 2.06-1.45 3.28 0 1.41 0.47 2.56 1.41 3.44 0.05 0.05 0.11 0.09 0.17 0.14 0.93 0.79 2.26 1.18 3.99 1.18 1.29 0 2.24-0.12 2.86-0.36 0.62-0.24 1.18-0.58 1.68-1.01 0.37-0.33 0.65-0.77 0.85-1.32s0.3-1.02 0.3-1.39c0-0.83-0.15-1.68-0.46-2.58 -0.3-0.89-0.49-1.55-0.56-1.99 0.39-0.28 0.91-0.56 1.55-0.83 0.64-0.27 1.44-0.41 2.4-0.41 1.07 0 1.93 0.24 2.58 0.72 0.5 0.37 0.89 0.8 1.19 1.29 0.09 0.15 0.17 0.31 0.25 0.47 0.28 0.61 0.47 1.36 0.55 2.25 0.09 0.89 0.13 1.61 0.13 2.15l0 3.13c-1.26 0.61-3.27 1.3-6.01 2.07 -2.74 0.77-5.1 1.52-7.05 2.24 -1.02 0.39-1.97 0.82-2.82 1.27 -0.86 0.46-1.62 1.03-2.27 1.73 -0.72 0.76-1.27 1.64-1.67 2.63 -0.1 0.27-0.19 0.55-0.27 0.85 -0.21 0.81-0.32 1.73-0.32 2.76 0 0.27 0.02 0.53 0.04 0.78 0.16 1.9 0.9 3.48 2.21 4.75 0.14 0.14 0.28 0.27 0.43 0.4 1.79 1.49 3.94 2.24 6.47 2.24 1.7 0 3.02-0.12 3.97-0.36 0.95-0.24 1.93-0.6 2.96-1.08 0.78-0.37 1.52-0.81 2.21-1.34 0.69-0.52 1.4-1.15 2.14-1.89l0.2 0c0.14 0.45 0.32 0.86 0.53 1.24 0.32 0.58 0.71 1.09 1.2 1.52 0.26 0.24 0.54 0.45 0.85 0.65 1.26 0.79 3.22 1.19 5.89 1.19 1.45 0 2.83-0.17 4.13-0.52 1.3-0.35 2.43-0.73 3.39-1.14l0-1.34 0-1.04c-0.65 0-1.38-0.01-2.17-0.05zm-14.02-13.17l-0.11 9.69c-0.59 0.72-1.27 1.32-2.04 1.82 -0.77 0.49-1.76 0.74-2.96 0.74 -0.97 0-1.8-0.28-2.51-0.83 -0.12-0.1-0.24-0.2-0.36-0.31 -0.77-0.76-1.16-1.99-1.16-3.69 0-1.29 0.23-2.4 0.69-3.35 0.46-0.95 1.09-1.73 1.9-2.34 0.76-0.59 1.75-1.15 2.95-1.68 1.2-0.53 2.41-1.01 3.63-1.42l-0.02 1.39z" fill="#268C8D"/><path d="m44.46 32.97c-0.73 1.14-1.58 2.22-2.58 3.24 -1.08 1.1-2.3 2.04-3.67 2.82 -1.46 0.83-2.93 1.45-4.42 1.88 -1.49 0.42-3.2 0.64-5.14 0.64 -3.22 0-6-0.46-8.33-1.37 -2.34-0.91-4.27-2.14-5.79-3.68 -0.08-0.08-0.15-0.16-0.22-0.24 0.35 0.45 0.73 0.88 1.13 1.3 1.52 1.54 3.45 2.77 5.79 3.69 2.34 0.91 5.11 1.37 8.33 1.37 1.94 0 3.65-0.21 5.14-0.64 1.49-0.42 2.96-1.05 4.42-1.87 1.37-0.78 2.59-1.72 3.67-2.82 0.67-0.68 1.27-1.4 1.82-2.14l-0.07-2.1 -0.08-0.05z"/><path d="m24.25 13.44c1-1.7 2.34-2.54 4.01-2.54 0.98 0 1.79 0.26 2.43 0.78 -0.26-0.42-0.56-0.78-0.91-1.05 -0.64-0.52-1.45-0.78-2.43-0.78 -1.67 0-3.01 0.85-4.01 2.54 -1 1.7-1.54 4.38-1.63 8.06l0.95-0.01c0.16-3.13 0.69-5.46 1.59-6.99z"/><path d="m41.18 12.51c0.74 0.97 1.32 2.05 1.72 3.25 0.56 1.69 0.85 3.45 0.85 5.3l0 2.12 -22.05 0c0 4.46 0.86 7.85 2.58 10.18 0.26 0.35 0.54 0.66 0.84 0.95 -1.67-2.32-2.51-5.68-2.51-10.07l22.05 0 0-2.12c0-1.85-0.28-3.61-0.85-5.3 -0.55-1.65-1.43-3.08-2.63-4.3z"/><path d="m56.55 29.35c1.48 0.44 2.72 0.81 3.74 1.11 1.01 0.31 1.94 0.67 2.79 1.11 0.42 0.23 0.78 0.48 1.1 0.75 -0.07-0.11-0.13-0.23-0.21-0.33 -0.43-0.56-1.03-1.05-1.79-1.47 -0.85-0.43-1.78-0.8-2.79-1.11 -1.01-0.3-2.26-0.67-3.73-1.11 -1.48-0.43-2.74-0.87-3.8-1.32 -1.05-0.44-2.15-1.15-3.28-2.1 -0.18-0.15-0.34-0.32-0.51-0.49 0.42 0.56 0.89 1.08 1.42 1.54 1.13 0.96 2.22 1.66 3.28 2.1 1.05 0.45 2.32 0.89 3.8 1.32z"/><path d="m72.64 24.95c1.12 1.52 1.69 3.33 1.69 5.44 0 3.57-1.4 6.33-4.19 8.28 -2.79 1.96-6.44 2.94-10.94 2.94 -2.11 0-4.17-0.31-6.18-0.93 -2.01-0.62-3.57-1.28-4.68-1.97l-0.98 2.22 -1.67 0 0.04 1.06 2.54 0 0.98-2.22c1.11 0.7 2.67 1.35 4.68 1.97 2.01 0.62 4.07 0.93 6.18 0.93 4.5 0 8.15-0.98 10.94-2.93 2.04-1.43 3.32-3.29 3.87-5.57 -0.02-0.26-0.04-0.51-0.04-0.78 0-1.03 0.11-1.95 0.32-2.76 -0.17-2.25-1.02-4.13-2.56-5.66z"/><path d="m68.31 14.51c-0.54-0.7-1.16-1.36-1.85-1.98 -1.85-1.64-3.84-2.46-5.97-2.46 -1.67 0-2.99 0.35-3.95 1.04 -0.96 0.7-1.43 1.66-1.43 2.9 0 1.35 0.47 2.38 1.4 3.12 -0.32-0.58-0.49-1.27-0.49-2.07 0-1.24 0.48-2.21 1.44-2.9 0.96-0.7 2.27-1.04 3.95-1.04 2.13 0 4.12 0.82 5.97 2.46 0.33 0.3 0.64 0.61 0.94 0.92z"/><path d="m70.88 18.38c0.15 0.35 0.29 0.69 0.41 1.06l2.28 0 -0.52-11.12 -0.86 0 0.47 10.07 -1.78 0z"/><path d="m47.67 29.81l-0.49 0c0.31 0.7 0.71 1.45 1.21 2.26 0.63 1.02 1.35 1.95 2.13 2.8 -0.43-0.55-0.84-1.13-1.22-1.75 -0.76-1.23-1.3-2.33-1.63-3.31z"/><path d="m89.62 26.98c0.76-0.59 1.75-1.15 2.95-1.68 0.9-0.4 1.8-0.75 2.71-1.08l0.02-1.39c-1.22 0.41-2.43 0.89-3.63 1.42 -1.2 0.53-2.18 1.1-2.95 1.68 -0.81 0.61-1.44 1.39-1.9 2.34 -0.46 0.95-0.69 2.07-0.69 3.35 0 1.7 0.39 2.93 1.16 3.7 0.12 0.11 0.24 0.22 0.36 0.31 -0.41-0.74-0.61-1.72-0.61-2.95 0-1.29 0.23-2.4 0.69-3.35 0.46-0.95 1.09-1.73 1.9-2.34z"/><path d="m111.47 38.47l0 1.34c-0.95 0.41-2.08 0.79-3.38 1.14 -1.3 0.35-2.68 0.52-4.13 0.52 -2.67 0-4.63-0.4-5.89-1.19 -0.31-0.19-0.59-0.41-0.85-0.64 0.46 0.68 1.04 1.25 1.76 1.7 1.26 0.79 3.22 1.19 5.89 1.19 1.45 0 2.83-0.17 4.13-0.52 1.3-0.35 2.43-0.73 3.39-1.14l0-2.38c-0.29 0-0.59 0-0.91-0.01z"/><path d="m86.52 18.32c-0.5 0.44-1.06 0.77-1.68 1.01 -0.62 0.24-1.57 0.36-2.86 0.36 -1.73 0-3.06-0.4-3.99-1.18 0.2 0.33 0.45 0.64 0.74 0.92 0.94 0.88 2.32 1.32 4.15 1.32 1.29 0 2.24-0.12 2.86-0.36 0.62-0.24 1.18-0.58 1.68-1.01 0.37-0.33 0.65-0.77 0.85-1.32s0.3-1.02 0.3-1.39c0-0.83-0.15-1.68-0.46-2.58 -0.3-0.89-0.49-1.55-0.56-1.99 0.39-0.28 0.91-0.56 1.55-0.83 0.64-0.27 1.44-0.41 2.4-0.41 1.07 0 1.93 0.24 2.58 0.72 0.1 0.07 0.19 0.16 0.28 0.23 -0.3-0.49-0.69-0.92-1.19-1.29 -0.65-0.48-1.51-0.72-2.58-0.72 -0.96 0-1.76 0.14-2.4 0.41 -0.64 0.27-1.16 0.55-1.55 0.83 0.07 0.44 0.25 1.1 0.56 1.99 0.31 0.89 0.46 1.75 0.46 2.58 0 0.37-0.1 0.83-0.29 1.39s-0.48 1-0.85 1.32z"/><path d="m95.29 36.87c-0.74 0.74-1.45 1.37-2.14 1.89 -0.68 0.52-1.42 0.97-2.2 1.34 -1.02 0.48-2.01 0.84-2.96 1.08 -0.95 0.24-2.27 0.36-3.97 0.36 -2.53 0-4.68-0.75-6.47-2.24 -0.15-0.13-0.29-0.26-0.43-0.4 0.37 0.53 0.81 1.01 1.34 1.45 1.79 1.49 3.94 2.24 6.47 2.24 1.7 0 3.02-0.12 3.97-0.36 0.95-0.24 1.93-0.6 2.96-1.08 0.78-0.37 1.52-0.81 2.21-1.34 0.63-0.48 1.28-1.05 1.95-1.71 -0.21-0.38-0.39-0.79-0.52-1.24l-0.19 0z"/><path d="m106.06 18.09c0 2.46-0.05 5.37-0.15 8.74 -0.1 3.37-0.15 5.59-0.15 6.65 0 0.98 0.15 1.75 0.44 2.32 0.21 0.41 0.51 0.74 0.89 1 -0.28-0.56-0.42-1.31-0.42-2.26 0-1.06 0.05-3.28 0.15-6.65 0.1-3.37 0.15-6.28 0.15-8.74 0-2.33-0.4-4.21-1.19-5.66 -0.43-0.77-0.94-1.44-1.52-2.02 0.22 0.3 0.43 0.62 0.61 0.97 0.79 1.45 1.19 3.33 1.19 5.66z"/><polygon points="21.41 3.93 19.88 3.93 19.88 2.95 21.31 2.95 21.31 2.06 19.88 2.06 19.88 1.22 21.41 1.22 21.41 0.31 18.82 0.31 18.82 4.85 21.41 4.85 "/><path d="m23.46 4.93c0.24 0 0.49-0.06 0.75-0.19l0-1.02c-0.21 0.16-0.4 0.25-0.57 0.25 -0.23 0-0.42-0.12-0.57-0.36 -0.14-0.24-0.21-0.56-0.21-0.97 0-0.47 0.07-0.83 0.21-1.08 0.14-0.25 0.34-0.37 0.58-0.37 0.2 0 0.38 0.09 0.55 0.25l0-1.04c-0.25-0.11-0.48-0.17-0.69-0.17 -0.35 0-0.66 0.11-0.93 0.33 -0.27 0.22-0.47 0.51-0.6 0.88 -0.13 0.37-0.19 0.75-0.19 1.16 0 0.66 0.15 1.22 0.45 1.66 0.31 0.45 0.71 0.67 1.22 0.67z"/><path d="m26.23 4.93c0.51 0 0.92-0.21 1.24-0.64 0.32-0.43 0.48-1 0.48-1.73 0-0.72-0.16-1.29-0.48-1.7s-0.75-0.62-1.3-0.62c-0.28 0-0.55 0.1-0.8 0.28 -0.25 0.19-0.45 0.47-0.59 0.84 -0.14 0.37-0.21 0.78-0.21 1.24 0 0.67 0.14 1.22 0.43 1.67 0.29 0.45 0.7 0.67 1.23 0.67zm-0.43-3.37c0.11-0.25 0.28-0.37 0.49-0.37 0.16 0 0.3 0.12 0.42 0.35 0.12 0.24 0.17 0.57 0.17 1.01 0 0.42-0.06 0.76-0.17 1.02 -0.11 0.25-0.27 0.38-0.46 0.38 -0.19 0-0.34-0.12-0.45-0.37 -0.11-0.25-0.16-0.59-0.16-1.02 0-0.43 0.06-0.76 0.17-1.01z"/><polygon points="30.93 3.93 29.46 3.93 29.46 0.31 28.4 0.31 28.4 4.85 30.93 4.85 "/><path d="m32.64 4.93c0.51 0 0.92-0.21 1.24-0.64 0.32-0.43 0.48-1 0.48-1.73 0-0.72-0.16-1.29-0.48-1.7s-0.75-0.62-1.3-0.62c-0.28 0-0.55 0.1-0.8 0.28 -0.25 0.19-0.45 0.47-0.59 0.84 -0.14 0.37-0.21 0.78-0.21 1.24 0 0.67 0.14 1.22 0.43 1.67s0.7 0.67 1.23 0.67zm-0.43-3.37c0.11-0.25 0.28-0.37 0.49-0.37 0.16 0 0.3 0.12 0.42 0.35 0.12 0.24 0.17 0.57 0.17 1.01 0 0.42-0.06 0.76-0.17 1.02 -0.11 0.25-0.27 0.38-0.46 0.38 -0.19 0-0.34-0.12-0.45-0.37 -0.11-0.25-0.16-0.59-0.16-1.02 0-0.43 0.06-0.76 0.17-1.01z"/><path d="m35.33 4.62c0.23 0.2 0.47 0.3 0.72 0.3 0.14 0 0.26-0.04 0.38-0.1 0.12-0.07 0.23-0.17 0.34-0.31l0.25 0.34 0.52 0 0-2.45 -1.34 0 0 0.82 0.35 0 0 0.28c0 0.17-0.02 0.3-0.06 0.38 -0.04 0.09-0.11 0.13-0.19 0.13 -0.17 0-0.3-0.12-0.4-0.37 -0.1-0.25-0.15-0.58-0.15-1.01 0-0.45 0.07-0.81 0.22-1.08 0.15-0.26 0.37-0.39 0.66-0.39 0.23 0 0.48 0.11 0.75 0.34l0-1.01c-0.28-0.18-0.6-0.27-0.96-0.27 -0.53 0-0.95 0.22-1.26 0.65 -0.31 0.43-0.47 1-0.47 1.7 0 0.41 0.05 0.81 0.16 1.18 0.11 0.37 0.27 0.66 0.5 0.86z"/><rect height="4.55" width="1.07" y="0.31" x="38.12"/><path d="m41.36 4.93c0.24 0 0.49-0.06 0.75-0.19l0-1.02c-0.21 0.16-0.4 0.25-0.57 0.25 -0.23 0-0.42-0.12-0.57-0.36 -0.14-0.24-0.21-0.56-0.21-0.97 0-0.47 0.07-0.83 0.21-1.08 0.14-0.25 0.34-0.37 0.58-0.37 0.2 0 0.38 0.09 0.55 0.25l0-1.04c-0.25-0.11-0.48-0.17-0.69-0.17 -0.35 0-0.66 0.11-0.93 0.33 -0.27 0.22-0.47 0.51-0.6 0.88 -0.13 0.37-0.19 0.75-0.19 1.16 0 0.66 0.15 1.22 0.45 1.66 0.3 0.45 0.71 0.67 1.22 0.67z"/><path d="m43.59 3.95l0.87 0 0.16 0.9 1.15 0 -1.2-4.55 -1.05 0 -1.19 4.55 1.09 0 0.17-0.9zm0.44-2.4l0.28 1.59 -0.58 0 0.29-1.59z"/><polygon points="48.61 3.93 47.15 3.93 47.15 0.31 46.09 0.31 46.09 4.85 48.61 4.85 "/><path d="m52.78 4.48c0.3-0.3 0.46-0.66 0.46-1.08 0-0.33-0.09-0.6-0.26-0.8 -0.18-0.2-0.43-0.37-0.78-0.52 -0.21-0.09-0.35-0.18-0.42-0.25 -0.08-0.08-0.12-0.17-0.12-0.28 0-0.11 0.05-0.2 0.14-0.28 0.1-0.08 0.21-0.12 0.34-0.12 0.26 0 0.54 0.14 0.83 0.41l0-1.09c-0.32-0.16-0.63-0.24-0.93-0.24 -0.44 0-0.79 0.13-1.05 0.39 -0.26 0.26-0.4 0.58-0.4 0.96 0 0.3 0.09 0.54 0.26 0.74 0.17 0.19 0.41 0.37 0.73 0.53 0.23 0.11 0.38 0.22 0.46 0.31 0.08 0.09 0.12 0.2 0.12 0.31 0 0.15-0.06 0.27-0.17 0.37 -0.11 0.1-0.25 0.15-0.41 0.15 -0.31 0-0.64-0.16-0.99-0.49l0 1.13c0.39 0.2 0.76 0.31 1.1 0.31 0.44 0 0.81-0.15 1.11-0.45z"/><path d="m55.2 4.93c0.51 0 0.92-0.21 1.24-0.64 0.32-0.43 0.48-1 0.48-1.73 0-0.72-0.16-1.29-0.48-1.7s-0.75-0.62-1.3-0.62c-0.28 0-0.55 0.1-0.8 0.28 -0.25 0.19-0.45 0.47-0.59 0.84 -0.14 0.37-0.21 0.78-0.21 1.24 0 0.67 0.14 1.22 0.43 1.67s0.7 0.67 1.23 0.67zm-0.43-3.37c0.11-0.25 0.28-0.37 0.49-0.37 0.16 0 0.3 0.12 0.42 0.35 0.12 0.24 0.17 0.57 0.17 1.01 0 0.42-0.06 0.76-0.17 1.02 -0.11 0.25-0.27 0.38-0.46 0.38 -0.19 0-0.34-0.12-0.45-0.37 -0.11-0.25-0.16-0.59-0.16-1.02 0-0.43 0.06-0.76 0.17-1.01z"/><path d="m58.91 4.93c0.24 0 0.49-0.06 0.75-0.19l0-1.02c-0.21 0.16-0.4 0.24-0.57 0.24 -0.23 0-0.42-0.12-0.57-0.36 -0.14-0.24-0.21-0.56-0.21-0.97 0-0.47 0.07-0.83 0.21-1.08 0.14-0.25 0.34-0.37 0.58-0.37 0.2 0 0.38 0.09 0.55 0.25l0-1.04c-0.25-0.11-0.48-0.17-0.69-0.17 -0.35 0-0.66 0.11-0.93 0.33 -0.27 0.22-0.47 0.51-0.6 0.88 -0.13 0.37-0.19 0.75-0.19 1.16 0 0.66 0.15 1.22 0.45 1.66 0.3 0.45 0.71 0.67 1.22 0.67z"/><rect height="4.55" width="1.07" y="0.31" x="60.2"/><polygon points="64.49 3.93 62.96 3.93 62.96 2.95 64.39 2.95 64.39 2.06 62.96 2.06 62.96 1.22 64.49 1.22 64.49 0.31 61.9 0.31 61.9 4.85 64.49 4.85 "/><polygon points="65.73 4.85 66.79 4.85 66.79 1.23 67.71 1.23 67.71 0.31 64.84 0.31 64.84 1.23 65.73 1.23 "/><polygon points="68.96 4.85 70.02 4.85 70.02 2.77 71.1 0.31 69.88 0.31 69.5 1.75 69.11 0.31 67.92 0.31 68.96 2.77 "/><path d="m74.74 0.23c-0.28 0-0.54 0.1-0.8 0.28 -0.25 0.19-0.45 0.47-0.59 0.84 -0.14 0.37-0.21 0.78-0.21 1.24 0 0.67 0.14 1.22 0.43 1.67s0.7 0.67 1.23 0.67c0.51 0 0.92-0.21 1.24-0.64 0.32-0.43 0.48-1 0.48-1.73 0-0.72-0.16-1.29-0.48-1.7 -0.32-0.42-0.75-0.62-1.3-0.62zm0.54 3.34c-0.11 0.25-0.27 0.38-0.46 0.38 -0.19 0-0.34-0.12-0.45-0.37 -0.11-0.25-0.16-0.59-0.16-1.02 0-0.43 0.06-0.76 0.17-1.01s0.28-0.37 0.49-0.37c0.16 0 0.3 0.12 0.42 0.35 0.12 0.24 0.17 0.57 0.17 1.01 0 0.43-0.06 0.76-0.17 1.02z"/><polygon points="78.03 3.05 79.39 3.05 79.39 2.17 78.03 2.17 78.03 1.22 79.5 1.22 79.5 0.31 76.97 0.31 76.97 4.85 78.03 4.85 "/><path d="m82.72 3.95l0.87 0 0.16 0.9 1.15 0 -1.2-4.55 -1.05 0 -1.19 4.55 1.09 0 0.17-0.9zm0.44-2.4l0.28 1.59 -0.58 0 0.29-1.59z"/><path d="m86.25 3.15c0-0.46-0.02-0.9-0.06-1.31l0.08 0c0.05 0.22 0.14 0.52 0.27 0.91l0.46 1.33 0.47-1.33c0.14-0.38 0.23-0.69 0.27-0.91l0.08 0c-0.04 0.44-0.05 0.88-0.05 1.31l0 1.7 1.04 0 0-4.55 -1.16 0 -0.64 1.74 -0.64-1.74 -1.16 0 0 4.55 1.04 0 0-1.7z"/><polygon points="92.02 3.93 90.49 3.93 90.49 2.95 91.92 2.95 91.92 2.06 90.49 2.06 90.49 1.22 92.02 1.22 92.02 0.31 89.43 0.31 89.43 4.85 92.02 4.85 "/><path d="m93.55 2.98l0.1 0c0.14 0 0.25 0.05 0.32 0.15 0.07 0.1 0.12 0.25 0.15 0.47l0.17 1.26 1.16 0 -0.31-1.44c-0.1-0.46-0.35-0.72-0.76-0.78 0.33-0.12 0.57-0.28 0.74-0.48 0.16-0.2 0.25-0.45 0.25-0.74 0-0.35-0.11-0.62-0.34-0.81 -0.23-0.19-0.53-0.29-0.9-0.29l-1.63 0 0 4.55 1.06 0 0-1.87zm0-1.79l0.28 0c0.15 0 0.27 0.04 0.35 0.11s0.11 0.19 0.11 0.34c0 0.15-0.04 0.27-0.13 0.37 -0.09 0.1-0.21 0.15-0.38 0.15l-0.23 0 0-0.97z"/><rect height="4.55" width="1.07" y="0.31" x="95.84"/><path d="m99.08 4.93c0.24 0 0.49-0.06 0.75-0.19l0-1.02c-0.21 0.16-0.4 0.24-0.57 0.24 -0.23 0-0.42-0.12-0.57-0.36 -0.14-0.24-0.21-0.56-0.21-0.97 0-0.47 0.07-0.83 0.21-1.08 0.14-0.25 0.34-0.37 0.58-0.37 0.2 0 0.38 0.09 0.55 0.25l0-1.04c-0.25-0.11-0.48-0.17-0.69-0.17 -0.35 0-0.66 0.11-0.93 0.33 -0.27 0.22-0.47 0.51-0.6 0.88s-0.19 0.75-0.19 1.16c0 0.66 0.15 1.22 0.45 1.66 0.3 0.45 0.71 0.67 1.22 0.67z"/><path d="m101.31 3.95l0.87 0 0.16 0.9 1.15 0 -1.2-4.55 -1.05 0 -1.19 4.55 1.09 0 0.17-0.9zm0.44-2.4l0.28 1.59 -0.58 0 0.29-1.59z"/><rect height="4.76" width="101.17" fill="#80C0C3" y="45.24" x="10.6"/><rect height="4.76" width="7.05" fill="#80C0C3" x="10.6"/><rect height="4.76" width="7.11" fill="#80C0C3" y="0.09" x="104.58"/></svg>
