<svg baseProfile="tiny" xmlns="http://www.w3.org/2000/svg" preserveAspectRatio="xMinYMin meet" viewBox="0 0 17 152" width="17" height="152"><path d="M12 9.5L9.5 12 6 8.5 2.5 12 0 9.5 3.5 6 0 2.4 2.4 0 6 3.5 9.5 0 12 2.5 8.5 6 12 9.5z" fill="#fff"/><g transform="translate(0 13)"><g fill="#268c8d"><path d="M0 0h16v2H0zm0 6h16v2H0zm0 6h16v2H0z"/></g></g><g transform="translate(0 30)"><path d="M6.923.007C3.103.007-.002 3.113-.002 6.93c0 3.82 3.106 6.925 6.925 6.925 1.167 0 2.314-.276 3.284-.81.077.093.163.18.257.257l1.978 1.978c.74.833 2.016.908 2.85.168.832-.74.907-2.016.167-2.85-.055-.058-.11-.114-.17-.167l-1.978-1.976c-.097-.097-.203-.183-.317-.257.534-.97.87-2.097.87-3.284 0-3.82-3.105-6.925-6.924-6.925l-.02.02zm0 1.978c2.75 0 4.945 2.196 4.945 4.946 0 1.308-.474 2.515-1.305 3.405l-.06.06c-.093.077-.18.163-.257.257-.87.792-2.057 1.247-3.343 1.247-2.75 0-4.946-2.197-4.946-4.947s2.196-4.945 4.946-4.945l.02-.02z" fill="#268c8d" fill-rule="evenodd"/></g><g transform="translate(0 47)"><path d="M12 9.5L9.5 12 6 8.5 2.5 12 0 9.5 3.5 6 0 2.4 2.4 0 6 3.5 9.5 0 12 2.5 8.5 6 12 9.5z" fill="#424242"/></g><g transform="translate(0 60)"><path d="M6.923.007C3.103.007-.002 3.113-.002 6.93c0 3.82 3.106 6.925 6.925 6.925 1.167 0 2.314-.276 3.284-.81.077.093.163.18.257.257l1.978 1.978c.74.833 2.016.908 2.85.168.832-.74.907-2.016.167-2.85-.055-.058-.11-.114-.17-.167l-1.978-1.976c-.097-.097-.203-.183-.317-.257.534-.97.87-2.097.87-3.284 0-3.82-3.105-6.925-6.924-6.925l-.02.02zm0 1.978c2.75 0 4.945 2.196 4.945 4.946 0 1.308-.474 2.515-1.305 3.405l-.06.06c-.093.077-.18.163-.257.257-.87.792-2.057 1.247-3.343 1.247-2.75 0-4.946-2.197-4.946-4.947s2.196-4.945 4.946-4.945l.02-.02z" fill="#fff" class="cls-2" fill-rule="evenodd"/></g><g transform="translate(0 77)"><path d="M0 0v12h12V9h-1.5v1.5h-9v-9H3V0H0zm6 0l2.25 2.25L4.5 6 6 7.5l3.75-3.75L12 6V0H6z" fill="#424242"/></g><g transform="translate(0 90)" fill="#C07400" stroke="#C07400" stroke-miterlimit="10"><path d="M.5 8.75c0 2.07 1.566 3.75 3.5 3.75s3.5-1.677 3.5-3.75c0-.842-.264-1.617-.7-2.243V3.5c0-1.657-1.253-3-2.8-3-1.546 0-2.8 1.343-2.8 3h.7c0-1.244.94-2.25 2.1-2.25S6.1 2.256 6.1 3.5v2.255C5.516 5.283 4.79 5 4 5 2.066 5 .5 6.677.5 8.75zm.7 0c0-1.657 1.254-3 2.8-3 1.547 0 2.8 1.343 2.8 3s-1.253 3-2.8 3c-1.546 0-2.8-1.345-2.8-3z"/><ellipse cx="4.041" cy="8.846" rx=".872" ry=".934"/></g><g transform="translate(0 104)" fill="#89398D" stroke="#89398D" stroke-miterlimit="10"><path d="M.5 8.75c0 2.07 1.566 3.75 3.5 3.75s3.5-1.677 3.5-3.75c0-.842-.262-1.617-.7-2.243V3.5c0-1.657-1.253-3-2.8-3-1.546 0-2.8 1.343-2.8 3h.7c0-1.244.94-2.25 2.1-2.25S6.1 2.256 6.1 3.5v2.255C5.516 5.283 4.79 5 4 5 2.066 5 .5 6.677.5 8.75zm.7 0c0-1.656 1.254-3 2.8-3 1.547 0 2.8 1.344 2.8 3s-1.253 3-2.8 3c-1.546 0-2.8-1.345-2.8-3z"/><ellipse cx="4.041" cy="8.845" rx=".873" ry=".934"/></g><g transform="translate(0 118)"><title>Layer 1</title><path d="M8 0C5.8 0 4 2.2 4 5s1.8 5 4 5 4-2.2 4-5-1.8-5-4-5zM3.8 10c-2.1.1-3.8 1.8-3.8 4v2h16v-2c0-2.2-1.7-3.9-3.8-4-1.1 1.2-2.6 2-4.2 2s-3.1-.8-4.2-2z" fill="#03282c"/></g><g transform="translate(0 135)"><title>Layer 1</title><path d="M8 0C5.8 0 4 2.2 4 5s1.8 5 4 5 4-2.2 4-5-1.8-5-4-5zM3.8 10c-2.1.1-3.8 1.8-3.8 4v2h16v-2c0-2.2-1.7-3.9-3.8-4-1.1 1.2-2.6 2-4.2 2s-3.1-.8-4.2-2z" fill="#268c8d"/></g></svg>