<?xml version="1.0" encoding="utf-8"?>
<!-- Generator: Adobe Illustrator 15.0.0, SVG Export Plug-In . SVG Version: 6.00 Build 0)  -->
<!DOCTYPE svg PUBLIC "-//W3C//DTD SVG 1.1//EN" "http://www.w3.org/Graphics/SVG/1.1/DTD/svg11.dtd">
<svg version="1.1" id="Calque_1" xmlns="http://www.w3.org/2000/svg" xmlns:xlink="http://www.w3.org/1999/xlink" x="0px" y="0px"
	 width="150px" height="50px" viewBox="0 0 150 50" enable-background="new 0 0 150 50" xml:space="preserve">
<path fill="#FFFFFF" d="M63.208,27.376v0.373c0,0.976,0.612,1.619,1.764,1.619c1.028,0,1.714-0.436,1.714-1.328
	c0-0.727-0.563-1.059-1.225-1.267l-2.375-0.726c-1.861-0.561-2.816-1.536-2.816-3.113c0-1.847,1.371-3.363,4.849-3.363
	c3.062,0,4.506,1.162,4.506,3.175v0.457h-3.036c0-1.12-0.392-1.681-1.494-1.681c-0.857,0-1.592,0.415-1.592,1.204
	c0,0.54,0.343,0.997,1.47,1.307l2.032,0.582c2.131,0.602,2.914,1.516,2.914,3.196c0,2.346-2.057,3.508-4.897,3.508
	c-3.796,0-4.849-1.411-4.849-3.549v-0.395H63.208z"/>
<path fill="#FFFFFF" d="M77.95,23.889c0-1.08-0.245-2.242-1.518-2.242c-1.666,0-1.935,1.246-1.935,3.819
	c0,2.76,0.294,3.902,1.812,3.902c1.127,0,1.641-0.81,1.641-2.614h3.232c0,2.926-1.444,4.565-5.02,4.565
	c-3.38,0-5.045-1.391-5.045-5.874c0-4.586,2.229-5.873,5.339-5.873c3.109,0,4.726,1.681,4.726,4.317H77.95z"/>
<path fill="#FFFFFF" d="M83.069,16.044h3.379v2.449h-3.379V16.044z M83.069,19.863h3.379v11.166h-3.379V19.863z"/>
<path fill="#FFFFFF" d="M91.713,25.881v0.892c0,1.308,0.416,2.595,1.665,2.595c1.127,0,1.592-0.727,1.787-2.096h3.037
	c-0.123,2.594-1.592,4.047-4.775,4.047c-4.897,0-5.093-3.196-5.093-5.977c0-2.989,0.685-5.77,5.239-5.77
	c3.943,0,4.824,2.242,4.824,5.666v0.643H91.713z M95.166,24.18c-0.073-1.702-0.317-2.656-1.714-2.656
	c-1.347,0-1.738,1.183-1.738,2.221v0.436H95.166z"/>
<path fill="#FFFFFF" d="M100.163,19.863h3.232v1.307h0.049c0.71-1.1,1.935-1.598,3.354-1.598c2.106,0,3.355,0.976,3.355,3.175v8.281
	h-3.38v-7.699c0-1.121-0.44-1.557-1.444-1.557c-1.151,0-1.788,0.602-1.788,1.847v7.409h-3.379V19.863z"/>
<path fill="#FFFFFF" d="M118.75,23.889c0-1.08-0.245-2.242-1.518-2.242c-1.666,0-1.935,1.246-1.935,3.819
	c0,2.76,0.293,3.902,1.812,3.902c1.126,0,1.641-0.81,1.641-2.614h3.232c0,2.926-1.444,4.565-5.021,4.565
	c-3.379,0-5.044-1.391-5.044-5.874c0-4.586,2.229-5.873,5.338-5.873c3.11,0,4.727,1.681,4.727,4.317H118.75z"/>
<path fill="#FFFFFF" d="M126.635,25.881v0.892c0,1.308,0.417,2.595,1.666,2.595c1.126,0,1.591-0.727,1.787-2.096h3.037
	c-0.123,2.594-1.593,4.047-4.775,4.047c-4.897,0-5.094-3.196-5.094-5.977c0-2.989,0.686-5.77,5.24-5.77
	c3.942,0,4.824,2.242,4.824,5.666v0.643H126.635z M130.088,24.18c-0.073-1.702-0.318-2.656-1.714-2.656
	c-1.348,0-1.739,1.183-1.739,2.221v0.436H130.088z"/>
<path fill="#FFFFFF" d="M137.558,27.376v0.373c0,0.976,0.612,1.619,1.763,1.619c1.029,0,1.715-0.436,1.715-1.328
	c0-0.727-0.563-1.059-1.225-1.267l-2.375-0.726c-1.861-0.561-2.816-1.536-2.816-3.113c0-1.847,1.371-3.363,4.849-3.363
	c3.061,0,4.506,1.162,4.506,3.175v0.457h-3.036c0-1.12-0.393-1.681-1.494-1.681c-0.856,0-1.592,0.415-1.592,1.204
	c0,0.54,0.343,0.997,1.469,1.307l2.033,0.582c2.131,0.602,2.914,1.516,2.914,3.196c0,2.346-2.058,3.508-4.897,3.508
	c-3.796,0-4.849-1.411-4.849-3.549v-0.395H137.558z"/>
<path fill="#FFFFFF" d="M47.126,16.083c-4.89,0-7.108,4.105-9.252,8.077c-1.92,3.552-3.732,6.905-7.302,6.905
	c-1.438,0-2.802-0.57-3.843-1.608c-1.121-1.116-1.739-2.623-1.739-4.241c0-3.227,2.504-5.85,5.582-5.85
	c3.404,0,5.286,3.274,5.304,3.306l0.158,0.28l1.753-3.005L37.764,1.768L34.334,5.09c0,0,0.011,11.229,0.012,11.77
	c-1.216-0.585-2.513-0.905-3.774-0.905c-3.605,0-6.776,2.191-8.204,5.597c-1.537-3.122-4.587-5.085-8.072-5.132
	c-5.265,0-9.388,4.011-9.388,9.134c0.033,5,4.228,9.067,9.35,9.067c2.92,0,4.86-1.426,6.449-2.762l0.158-0.133l-2.499-2.362
	l-0.126,0.123c-1.194,1.162-2.496,1.739-3.98,1.767c-3.033,0-5.208-2.214-5.485-4.266c0,0-0.008-0.059-0.015-0.104h13
	c0.776,4.318,4.535,7.573,8.813,7.594c5.188,0.021,7.621-4.468,9.768-8.428c1.849-3.411,3.595-6.632,6.781-6.556
	c3.132,0.076,5.584,2.645,5.584,5.85c0,3.225-2.502,5.848-5.58,5.848c-2.435,0-4.312-1.663-5.512-2.914l-2.094,3.516l-0.005,14.543
	l3.373,2.625V33.61c1.475,0.651,2.9,0.992,4.238,0.992c4.958,0,8.994-4.153,8.994-9.259C56.12,20.237,52.086,16.083,47.126,16.083
	 M8.691,23.721c0.385-0.881,1.958-3.915,5.44-3.979c3.474,0,4.951,3.094,5.302,3.979H8.691z"/>
</svg>
