<?xml version="1.0" encoding="utf-8"?>
<!-- Generator: Adobe Illustrator 15.0.0, SVG Export Plug-In . SVG Version: 6.00 Build 0)  -->
<!DOCTYPE svg PUBLIC "-//W3C//DTD SVG 1.1//EN" "http://www.w3.org/Graphics/SVG/1.1/DTD/svg11.dtd">
<svg version="1.1" id="Calque_1" xmlns="http://www.w3.org/2000/svg" xmlns:xlink="http://www.w3.org/1999/xlink" x="0px" y="0px"
	 width="100px" height="36px" viewBox="0 0 100 36" enable-background="new 0 0 100 36" xml:space="preserve">
<path d="M41.321,19.337V19.6c0,0.688,0.431,1.143,1.243,1.143c0.726,0,1.21-0.308,1.21-0.938c0-0.512-0.397-0.747-0.864-0.893
	l-1.677-0.513c-1.313-0.396-1.986-1.084-1.986-2.197c0-1.303,0.967-2.373,3.421-2.373c2.16,0,3.18,0.82,3.18,2.24v0.322h-2.143
	c0-0.791-0.276-1.186-1.054-1.186c-0.605,0-1.124,0.293-1.124,0.85c0,0.381,0.243,0.703,1.037,0.922L44,17.389
	c1.503,0.425,2.056,1.069,2.056,2.255c0,1.654-1.452,2.475-3.457,2.475c-2.678,0-3.421-0.996-3.421-2.503v-0.278H41.321z"/>
<path d="M51.723,16.876c0-0.761-0.173-1.581-1.071-1.581c-1.175,0-1.365,0.878-1.365,2.694c0,1.946,0.207,2.753,1.278,2.753
	c0.795,0,1.158-0.572,1.158-1.846h2.281c0,2.065-1.021,3.222-3.542,3.222c-2.385,0-3.561-0.98-3.561-4.144
	c0-3.236,1.572-4.144,3.768-4.144c2.194,0,3.335,1.186,3.335,3.046H51.723z"/>
<path d="M55.334,11.341h2.384v1.728h-2.384V11.341z M55.334,14.035h2.384v7.879h-2.384V14.035z"/>
<path d="M61.434,18.281v0.631c0,0.922,0.293,1.83,1.175,1.83c0.795,0,1.122-0.513,1.261-1.479h2.143
	c-0.087,1.83-1.123,2.854-3.368,2.854c-3.457,0-3.595-2.255-3.595-4.216c0-2.109,0.484-4.072,3.697-4.072
	c2.782,0,3.403,1.582,3.403,3.998v0.453H61.434z M63.87,17.082c-0.052-1.201-0.224-1.875-1.209-1.875
	c-0.95,0-1.227,0.835-1.227,1.567v0.308H63.87z"/>
<path d="M67.396,14.035h2.28v0.923h0.034c0.501-0.776,1.365-1.128,2.367-1.128c1.486,0,2.367,0.689,2.367,2.24v5.844H72.06v-5.433
	c0-0.791-0.31-1.099-1.019-1.099c-0.813,0-1.262,0.425-1.262,1.303v5.229h-2.384V14.035z"/>
<path d="M80.51,16.876c0-0.761-0.173-1.581-1.071-1.581c-1.175,0-1.365,0.878-1.365,2.694c0,1.946,0.208,2.753,1.279,2.753
	c0.794,0,1.157-0.572,1.157-1.846h2.281c0,2.065-1.02,3.222-3.543,3.222c-2.384,0-3.559-0.98-3.559-4.144
	c0-3.236,1.572-4.144,3.767-4.144s3.335,1.186,3.335,3.046H80.51z"/>
<path d="M86.075,18.281v0.631c0,0.922,0.293,1.83,1.175,1.83c0.795,0,1.123-0.513,1.261-1.479h2.143
	c-0.086,1.83-1.122,2.854-3.369,2.854c-3.455,0-3.594-2.255-3.594-4.216c0-2.109,0.484-4.072,3.698-4.072
	c2.781,0,3.403,1.582,3.403,3.998v0.453H86.075z M88.51,17.082c-0.052-1.201-0.225-1.875-1.209-1.875
	c-0.95,0-1.227,0.835-1.227,1.567v0.308H88.51z"/>
<path d="M93.781,19.337V19.6c0,0.688,0.432,1.143,1.244,1.143c0.726,0,1.21-0.308,1.21-0.938c0-0.512-0.397-0.747-0.863-0.893
	l-1.677-0.513c-1.313-0.396-1.986-1.084-1.986-2.197c0-1.303,0.966-2.373,3.42-2.373c2.161,0,3.18,0.82,3.18,2.24v0.322h-2.143
	c0-0.791-0.276-1.186-1.054-1.186c-0.604,0-1.124,0.293-1.124,0.85c0,0.381,0.243,0.703,1.037,0.922l1.435,0.41
	c1.503,0.425,2.057,1.069,2.057,2.255c0,1.654-1.452,2.475-3.456,2.475c-2.679,0-3.422-0.996-3.422-2.503v-0.278H93.781z"/>
<path fill="#E31837" d="M29.975,11.368c-3.45,0-5.016,2.897-6.528,5.699c-1.355,2.506-2.633,4.871-5.152,4.871
	c-1.015,0-1.978-0.402-2.712-1.134c-0.791-0.787-1.227-1.851-1.227-2.992c0-2.277,1.767-4.127,3.939-4.127
	c2.401,0,3.729,2.31,3.742,2.333l0.112,0.196l1.236-2.12L23.368,1.268l-2.419,2.344c0,0,0.007,7.923,0.009,8.305
	c-0.858-0.414-1.774-0.638-2.663-0.638c-2.544,0-4.781,1.545-5.789,3.949c-1.083-2.203-3.236-3.588-5.696-3.622
	c-3.714,0-6.624,2.831-6.624,6.445c0.023,3.528,2.983,6.398,6.597,6.398c2.06,0,3.429-1.007,4.551-1.95l0.111-0.093l-1.764-1.667
	l-0.089,0.087c-0.843,0.82-1.761,1.228-2.808,1.246c-2.141,0-3.675-1.562-3.87-3.01c0,0-0.005-0.041-0.011-0.072h9.173
	c0.548,3.045,3.2,5.343,6.219,5.356c3.66,0.016,5.377-3.151,6.892-5.946c1.304-2.406,2.536-4.68,4.784-4.625
	c2.21,0.053,3.941,1.866,3.941,4.128c0,2.275-1.767,4.125-3.938,4.125c-1.718,0-3.042-1.174-3.889-2.056l-1.478,2.48l-0.003,10.261
	l2.38,1.853V23.735c1.041,0.46,2.046,0.7,2.99,0.7c3.499,0,6.346-2.931,6.346-6.533C36.32,14.299,33.474,11.368,29.975,11.368
	 M2.855,16.758c0.272-0.622,1.382-2.762,3.838-2.808c2.452,0,3.494,2.184,3.741,2.808H2.855z"/>
</svg>
