<svg baseProfile="tiny" xmlns="http://www.w3.org/2000/svg" preserveAspectRatio="xMinYMin meet" viewBox="0 0 19 143" width="19" height="143"><path d="M12 9.602L9.602 12 6 8.4 2.4 12 0 9.602 3.602 6 0 2.4 2.4 0 6 3.602 9.602 0 12 2.4 8.4 6 12 9.602z" fill="#fff"/><g transform="translate(0 13)"><g fill="#fff"><path d="M0 0h18v2H0zm0 5h18v2H0zm0 5h18v2H0z"/></g></g><g transform="translate(0 26)"><g transform="translate(-109.978 -159.525)"><g transform="translate(109.978 159.525)"><path d="M3.864 8.83l1.69 1.658-3.866 3.758L0 12.59zM9 .91v.908c.978 0 1.854.387 2.49 1.01.636.626 1.023 1.476 1.023 2.422 0 .945-.388 1.794-1.023 2.42-.637.623-1.513 1.01-2.49 1.01-.98 0-1.854-.387-2.49-1.01-.636-.626-1.023-1.475-1.023-2.42 0-.946.386-1.795 1.022-2.42.634-.625 1.51-1.014 2.49-1.014V0C7.536 0 6.2.584 5.236 1.53c-.964.945-1.567 2.266-1.566 3.717 0 1.45.605 2.77 1.57 3.715.962.947 2.3 1.53 3.762 1.53 1.46 0 2.8-.584 3.76-1.53.967-.944 1.57-2.264 1.57-3.715 0-1.45-.6-2.772-1.566-3.715C11.8.585 10.464 0 9.004 0v.908z" fill="#3598db"/></g></g></g><g transform="translate(0 42)"><g transform="translate(-241.05 -476.412)" fill="#333"><path d="M241.05 477.827l8.486 8.485 1.414-1.414-8.485-8.486zM250.95 477.827l-1.414-1.415-8.485 8.486 1.416 1.414z"/></g></g><g transform="translate(0 53)"><path d="M3.864 8.83l1.69 1.658-3.866 3.758L0 12.59zM9 .91v.908c.978 0 1.854.387 2.49 1.01.636.626 1.023 1.476 1.023 2.422 0 .945-.388 1.794-1.023 2.42-.637.623-1.513 1.01-2.49 1.01-.98 0-1.854-.387-2.49-1.01-.636-.626-1.023-1.475-1.023-2.42 0-.946.386-1.795 1.022-2.42S8.02 1.816 9 1.816V0C7.537 0 6.2.584 5.237 1.53c-.964.945-1.567 2.266-1.566 3.717 0 1.45.603 2.77 1.567 3.715.963.947 2.3 1.53 3.763 1.53 1.46 0 2.798-.584 3.76-1.53.966-.944 1.568-2.264 1.568-3.715 0-1.45-.6-2.772-1.565-3.715C11.8.585 10.465 0 9.003 0v.908z" fill="#fff"/></g><g transform="translate(0 69)" fill="#434343"><path d="M0 2h5v1H0V2zm8 4h1v5H8V6zM0 2h1v9H0V2zm0 8h9v1H0v-1zM7 0h4v4"/><path d="M4.636 5.657L10.293 0 11 .71 5.343 6.364l-.707-.707z"/></g><g transform="translate(0 81)" fill="#C07400" stroke="#C07400" stroke-miterlimit="10"><path d="M.5 8.75c0 2.07 1.566 3.75 3.5 3.75s3.5-1.677 3.5-3.75c0-.842-.263-1.617-.7-2.243V3.5c0-1.657-1.253-3-2.8-3-1.546 0-2.8 1.343-2.8 3h.7c0-1.244.94-2.25 2.1-2.25 1.16 0 2.1 1.006 2.1 2.25v2.255C5.515 5.283 4.79 5 4 5 2.066 5 .5 6.677.5 8.75zm.7 0c0-1.657 1.254-3 2.8-3 1.547 0 2.8 1.343 2.8 3s-1.253 3-2.8 3c-1.546 0-2.8-1.345-2.8-3z"/><ellipse cx="4.041" cy="8.846" rx=".872" ry=".934"/></g><g transform="translate(0 95)" fill="#89398D" stroke="#89398D" stroke-miterlimit="10"><path d="M.5 8.75c0 2.07 1.566 3.75 3.5 3.75s3.5-1.677 3.5-3.75c0-.842-.262-1.617-.7-2.243V3.5c0-1.657-1.253-3-2.8-3-1.546 0-2.8 1.343-2.8 3h.7c0-1.244.94-2.25 2.1-2.25S6.1 2.256 6.1 3.5v2.255C5.515 5.283 4.79 5 4 5 2.066 5 .5 6.677.5 8.75zm.7 0c0-1.656 1.254-3 2.8-3 1.547 0 2.8 1.344 2.8 3s-1.253 3-2.8 3c-1.546 0-2.8-1.345-2.8-3z"/><ellipse cx="4.041" cy="8.845" rx=".873" ry=".934"/></g><g transform="translate(0 109)"><title>Layer 1</title><path d="M8 0C5.8 0 4 2.2 4 5s1.8 5 4 5 4-2.2 4-5-1.8-5-4-5zM3.8 10c-2.1.1-3.8 1.8-3.8 4v2h16v-2c0-2.2-1.7-3.9-3.8-4-1.1 1.2-2.6 2-4.2 2s-3.1-.8-4.2-2z" fill="#3498db"/></g><g transform="translate(0 126)"><title>Layer 1</title><path d="M8 0C5.8 0 4 2.2 4 5s1.8 5 4 5 4-2.2 4-5-1.8-5-4-5zM3.8 10c-2.1.1-3.8 1.8-3.8 4v2h16v-2c0-2.2-1.7-3.9-3.8-4-1.1 1.2-2.6 2-4.2 2s-3.1-.8-4.2-2z" fill="#bdbdbd"/></g></svg>