<?xml version="1.0" encoding="UTF-8"?>
<svg width="240px" height="44px" viewBox="0 0 240 44" version="1.1" xmlns="http://www.w3.org/2000/svg" xmlns:xlink="http://www.w3.org/1999/xlink">
    <!-- Generator: Sketch 43.2 (39069) - http://www.bohemiancoding.com/sketch -->
    <title>tfgroup-logo</title>
    <desc>Created with Sketch.</desc>
    <defs></defs>
    <g id="Symbols" stroke="none" stroke-width="1" fill="none" fill-rule="evenodd">
        <g id="footer-new" transform="translate(-65.000000, -23.000000)" fill-rule="nonzero">
            <g id="tfgroup-logo" transform="translate(65.000000, 23.000000)">
                <g id="Group">
                    <ellipse id="Oval" fill="#00AACC" cx="21.6438154" cy="22.1178571" rx="21.6438154" ry="21.7642857"></ellipse>
                    <polygon id="Shape" fill="#FFFFFF" points="15.5882353 22.4321429 28.2072829 22.4321429 28.676102 21.3714286 15.1584844 21.3714286"></polygon>
                    <polygon id="Shape" fill="#FFFFFF" points="14.9240749 20.7821429 28.9105116 20.7821429 29.3402624 19.7607143 14.4552558 19.7607143"></polygon>
                    <path d="M7.81365178,14.9285714 C7.81365178,14.9285714 5.11794191,20.9392857 7.85272004,21.0178571 C7.85272004,21.0178571 10.3921569,21.1357143 7.81365178,14.9285714 Z" id="Shape" fill="#FFFFFF"></path>
                    <path d="M24.144184,13.2785714 C24.144184,13.2785714 17.6197848,16.1464286 21.7219519,18.7785714 C21.7219519,18.7785714 21.5266106,16.6178571 24.144184,13.2785714 Z" id="Shape" fill="#FFFFFF"></path>
                    <path d="M33.2080201,22.9428571 L9.45451865,22.9428571 L9.45451865,22.3535714 L6.28998968,22.3535714 L6.28998968,22.9428571 L5.54769276,22.9428571 L6.32905794,24.7892857 L10.2749521,24.7892857 C12.4627746,28.9928571 16.7993513,31.8214286 21.8000885,31.8214286 C25.2771635,31.8214286 28.4807607,30.4464286 30.785788,28.1678571 C36.6460268,28.6785714 38.0915524,21.6071429 38.0915524,21.6071429 L33.2080201,22.9428571 Z M31.7624945,27.2642857 C32.1922453,26.7535714 32.5829279,26.2035714 32.9736105,25.6142857 C32.9736105,25.6142857 33.5987026,24.6321429 33.950317,23.7285714 L36.8413681,22.9428571 C35.1223647,26.9107143 32.5047914,27.225 31.7624945,27.2642857 Z" id="Shape" fill="#FFFFFF"></path>
                </g>
                <g id="Group" transform="translate(49.616689, 5.500000)" fill="#FFFFFF">
                    <polygon id="Shape" points="4.61005455 14.7321429 4.61005455 2.39642857 0.273477812 2.39642857 0.273477812 1.02142857 10.9000442 1.02142857 10.9000442 2.39642857 6.52439923 2.39642857 6.52439923 14.7321429"></polygon>
                    <path d="M15.1194162,13.6714286 C14.4552558,14.3392857 13.5957541,14.9678571 12.6971841,14.9678571 C11.0563173,14.9678571 9.92333776,13.7892857 9.92333776,11.9428571 C9.92333776,10.2535714 11.3688633,9.15357143 13.4004128,8.56428571 L15.7445083,7.81785714 C15.6663718,6.63928571 14.7678019,5.85357143 13.7910954,5.85357143 C12.6581159,5.85357143 11.9548872,6.325 11.2516586,6.91428571 L10.5874982,6.05 C11.5642046,5.10714286 12.5409111,4.71428571 13.9083002,4.71428571 C15.3538257,4.71428571 17.50258,5.18571429 17.50258,8.05357143 L17.50258,12.375 C17.50258,13.1214286 17.5807165,14.0642857 17.9323308,14.7714286 L16.0179861,14.7714286 C15.7835766,14.3785714 15.7445083,13.75 15.7445083,13.1214286 L15.1194162,13.6714286 L15.1194162,13.6714286 Z M14.0645732,9.54642857 C12.5409111,10.0178571 11.7204777,10.7642857 11.7204777,11.9821429 C11.7204777,13.0035714 12.4237063,13.6321429 13.126935,13.6321429 C14.3771193,13.6321429 15.9789179,12.1 15.7445083,9.03571429 L14.0645732,9.54642857 L14.0645732,9.54642857 Z" id="Shape"></path>
                    <path d="M20.7843137,4.75357143 C21.7610202,7.22857143 22.7767949,9.74285714 23.7535014,12.6892857 L23.7925697,12.6892857 C24.8083444,9.74285714 25.8241191,7.22857143 26.8398939,4.75357143 L28.3635559,5.10714286 L23.3628188,16.4607143 C22.4642489,18.5428571 21.2531328,19.6428571 19.5731977,19.6428571 L18.713696,19.6428571 L18.713696,18.3857143 L19.3778564,18.3857143 C20.5889724,18.3857143 21.4484741,18.0714286 22.8158632,14.1821429 L18.9871738,5.225 L20.7843137,4.75357143 L20.7843137,4.75357143 Z" id="Shape"></path>
                    <polygon id="Shape" points="29.9653546 14.7321429 29.9653546 0.353571429 31.684358 0.353571429 31.684358 14.7321429"></polygon>
                    <path d="M33.9112487,9.74285714 C33.9112487,6.56071429 36.2553442,4.71428571 38.7166446,4.71428571 C41.1779449,4.71428571 43.5220404,6.56071429 43.5220404,9.74285714 C43.5220404,12.7678571 41.6076957,15.0071429 38.7166446,15.0071429 C35.8646617,14.9678571 33.9112487,12.7678571 33.9112487,9.74285714 L33.9112487,9.74285714 Z M35.8255934,9.74285714 C35.8255934,11.5892857 36.4506855,13.75 38.7166446,13.75 C41.0216718,13.75 41.646764,11.5892857 41.646764,9.74285714 C41.646764,7.975 40.9435353,5.97142857 38.7166446,5.97142857 C36.5288221,6.01071429 35.8255934,7.975 35.8255934,9.74285714 L35.8255934,9.74285714 Z" id="Shape"></path>
                    <path d="M47.4679345,6.20714286 L48.1711632,5.46071429 C48.5618458,5.06785714 49.2260062,4.75357143 49.6166888,4.75357143 C50.0464396,4.75357143 50.6715318,5.06785714 51.2184874,5.69642857 L50.4371222,6.83571429 C50.0073714,6.63928571 49.5776205,6.44285714 49.1478697,6.44285714 C48.2492997,6.44285714 47.5070028,7.34642857 47.5070028,9.50714286 L47.5070028,14.7714286 L45.7489312,14.7714286 L45.7489312,4.95 L47.4679345,4.95 L47.4679345,6.20714286 L47.4679345,6.20714286 Z" id="Shape"></path>
                    <polygon id="Shape" points="80.285272 2.39642857 75.4408079 2.39642857 75.4408079 7.62142857 80.2071355 7.62142857 80.2071355 8.99642857 75.4408079 8.99642857 75.4408079 14.7321429 73.5655315 14.7321429 73.5655315 1.02142857 80.285272 1.02142857"></polygon>
                    <path d="M84.4655757,6.20714286 L85.1688044,5.46071429 C85.5985552,5.06785714 86.2236474,4.75357143 86.6143299,4.75357143 C87.0440808,4.75357143 87.6691729,5.06785714 88.2161286,5.69642857 L87.4347634,6.83571429 C87.0050125,6.63928571 86.5752617,6.44285714 86.1455108,6.44285714 C85.2469409,6.44285714 84.504644,7.34642857 84.504644,9.50714286 L84.504644,14.7714286 L82.7465723,14.7714286 L82.7465723,4.95 L84.4655757,4.95 L84.4655757,6.20714286 L84.4655757,6.20714286 Z" id="Shape"></path>
                    <path d="M94.0763674,13.6714286 C93.412207,14.3392857 92.5527053,14.9678571 91.6541353,14.9678571 C90.0132685,14.9678571 88.880289,13.7892857 88.880289,11.9428571 C88.880289,10.2535714 90.3258145,9.15357143 92.357364,8.56428571 L94.7014595,7.81785714 C94.623323,6.63928571 93.7247531,5.85357143 92.7480466,5.85357143 C91.6150671,5.85357143 90.9118384,6.325 90.2086098,6.91428571 L89.5444494,6.05 C90.5211558,5.10714286 91.4978623,4.71428571 92.8652514,4.71428571 C94.3107769,4.71428571 96.4595312,5.18571429 96.4595312,8.05357143 L96.4595312,12.375 C96.4595312,13.1214286 96.5376677,14.0642857 96.889282,14.7714286 L94.9749373,14.7714286 C94.7405278,14.3785714 94.7014595,13.75 94.7014595,13.1214286 L94.0763674,13.6714286 L94.0763674,13.6714286 Z M93.0215244,9.54642857 C91.4978623,10.0178571 90.6774289,10.7642857 90.6774289,11.9821429 C90.6774289,13.0035714 91.3806575,13.6321429 92.0838862,13.6321429 C93.3340705,13.6321429 94.9358691,12.1 94.7014595,9.03571429 L93.0215244,9.54642857 L93.0215244,9.54642857 Z" id="Shape"></path>
                    <path d="M100.991449,6.20714286 C101.890019,5.225 103.296476,4.75357143 104.312251,4.75357143 C106.539142,4.75357143 107.750258,6.01071429 107.750258,8.48571429 L107.750258,14.8107143 L105.992186,14.8107143 L105.992186,8.87857143 C105.992186,7.03214286 105.210821,6.08928571 103.648091,6.08928571 C102.280702,6.08928571 100.991449,7.03214286 100.991449,8.91785714 L100.991449,14.8107143 L99.2333776,14.8107143 L99.2333776,5.02857143 L100.952381,5.02857143 L100.991449,6.20714286 L100.991449,6.20714286 Z" id="Shape"></path>
                    <path d="M118.142415,13.9464286 C117.204777,14.6142857 116.032729,14.9678571 115.212295,14.9678571 C110.602241,14.9678571 110.016217,11.1571429 110.016217,9.82142857 C110.016217,7.38571429 111.618016,4.71428571 115.290432,4.71428571 C116.267138,4.71428571 117.165708,4.95 117.908005,5.5 L117.321981,6.48214286 C116.775026,6.20714286 116.032729,5.97142857 115.3295,5.97142857 C113.727702,5.97142857 111.930562,7.03214286 111.930562,9.70357143 C111.930562,11.7464286 112.946336,13.6714286 115.3295,13.6714286 C116.149934,13.6714286 116.931299,13.475 117.712664,12.9642857 L118.142415,13.9464286 L118.142415,13.9464286 Z" id="Shape"></path>
                    <path d="M119.783282,1.72857143 C119.783282,1.25714286 120.173964,0.707142857 120.877193,0.707142857 C121.580422,0.707142857 121.971104,1.25714286 121.971104,1.72857143 C121.971104,2.23928571 121.736695,2.90714286 120.877193,2.90714286 C120.05676,2.90714286 119.783282,2.27857143 119.783282,1.72857143 L119.783282,1.72857143 Z M121.775763,4.95 L121.775763,14.7321429 L120.017691,14.7321429 L120.017691,4.95 L121.775763,4.95 L121.775763,4.95 Z" id="Shape"></path>
                    <path d="M129.2378,6.52142857 C128.534572,6.05 127.987616,5.89285714 127.44066,5.89285714 C126.815568,5.89285714 126.034203,6.20714286 126.034203,6.99285714 C126.034203,7.81785714 126.932773,8.21071429 128.026684,9.075 C129.276869,10.0178571 130.097302,10.8428571 130.097302,12.2178571 C130.097302,13.8678571 128.495503,14.9678571 126.698364,14.9678571 C125.604452,14.9678571 124.354268,14.4964286 123.690108,13.75 L124.549609,12.7678571 C125.096565,13.2785714 125.87793,13.75 126.659295,13.75 C127.479729,13.75 128.300162,13.3178571 128.300162,12.375 C128.300162,11.2357143 127.284387,10.7642857 126.385817,10.0964286 C125.291906,9.31071429 124.3152,8.64285714 124.3152,7.30714286 C124.3152,5.775 125.838862,4.79285714 127.557865,4.79285714 C128.495503,4.79285714 129.433142,5.18571429 129.941029,5.69642857 L129.2378,6.52142857 L129.2378,6.52142857 Z" id="Shape"></path>
                    <path d="M148.185906,8.48571429 L148.185906,14.0642857 C146.857585,14.5357143 145.216718,14.9678571 143.458647,14.9678571 C138.614183,14.9678571 136.113814,11.5892857 136.113814,7.85714286 C136.113814,4.4 138.809524,0.825 143.693056,0.825 C145.685537,0.825 147.248268,1.45357143 148.068701,2.16071429 L147.287336,3.3 C146.466903,2.75 145.216718,2.2 143.732124,2.2 C140.176913,2.2 138.184432,4.63571429 138.184432,7.85714286 C138.184432,11.3142857 140.528527,13.6714286 143.497715,13.6714286 C144.630694,13.6714286 145.490196,13.5535714 146.271561,13.2 L146.271561,8.56428571 L148.185906,8.56428571 L148.185906,8.48571429 L148.185906,8.48571429 Z" id="Shape"></path>
                    <path d="M152.717824,6.20714286 L153.421053,5.46071429 C153.811735,5.06785714 154.475896,4.75357143 154.866578,4.75357143 C155.296329,4.75357143 155.921421,5.06785714 156.468377,5.69642857 L155.687012,6.83571429 C155.257261,6.63928571 154.82751,6.44285714 154.397759,6.44285714 C153.499189,6.44285714 152.756892,7.34642857 152.756892,9.50714286 L152.756892,14.7714286 L150.998821,14.7714286 L150.998821,4.95 L152.717824,4.95 L152.717824,6.20714286 L152.717824,6.20714286 Z" id="Shape"></path>
                    <path d="M157.132537,9.74285714 C157.132537,6.56071429 159.476633,4.71428571 161.937933,4.71428571 C164.399233,4.71428571 166.743329,6.56071429 166.743329,9.74285714 C166.743329,12.7678571 164.828984,15.0071429 161.937933,15.0071429 C159.046882,14.9678571 157.132537,12.7678571 157.132537,9.74285714 L157.132537,9.74285714 Z M159.007814,9.74285714 C159.007814,11.5892857 159.632906,13.75 161.898865,13.75 C164.203892,13.75 164.828984,11.5892857 164.828984,9.74285714 C164.828984,7.975 164.125756,5.97142857 161.898865,5.97142857 C159.750111,6.01071429 159.007814,7.975 159.007814,9.74285714 L159.007814,9.74285714 Z" id="Shape"></path>
                    <path d="M175.455551,13.5928571 C174.478844,14.4571429 173.580274,14.9678571 172.33009,14.9678571 C170.103199,14.9678571 168.892083,13.7107143 168.892083,11.2357143 L168.892083,4.95 L170.650155,4.95 L170.650155,10.8821429 C170.650155,12.7285714 171.43152,13.7107143 172.99425,13.7107143 C174.322571,13.7107143 175.455551,12.6107143 175.455551,10.6857143 L175.455551,4.95 L177.213622,4.95 L177.213622,14.7321429 L175.494619,14.7321429 L175.455551,13.5928571 L175.455551,13.5928571 Z" id="Shape"></path>
                    <path d="M181.823677,6.48214286 L181.862745,6.48214286 C182.565974,5.30357143 183.972431,4.71428571 185.066342,4.71428571 C188.855963,4.71428571 189.481056,8.13214286 189.481056,9.54642857 C189.481056,12.5321429 187.722984,14.9678571 184.871001,14.9678571 C183.659885,14.9678571 182.605042,14.3785714 181.862745,13.4357143 L181.823677,13.4357143 L181.823677,19.6428571 L180.065605,19.6428571 L180.065605,4.98928571 L181.823677,4.98928571 L181.823677,6.48214286 L181.823677,6.48214286 Z M187.605779,9.58571429 C187.605779,7.81785714 186.707209,5.97142857 184.910069,5.97142857 C182.917588,5.97142857 181.862745,7.50357143 181.862745,10.0571429 C181.862745,11.9428571 182.722247,13.75 184.910069,13.75 C186.980687,13.7107143 187.605779,11.3535714 187.605779,9.58571429 L187.605779,9.58571429 Z" id="Shape"></path>
                    <path d="M66.1425623,11.55 C66.8067227,10.2535714 66.8848592,8.8 66.6504497,7.62142857 L65.1267876,7.62142857 C65.4393336,8.64285714 65.4784019,9.82142857 65.0877193,10.6071429 L60.7120743,6.52142857 C59.3837535,5.30357143 58.8758661,4.55714286 58.8758661,3.77142857 C58.8758661,2.90714286 59.5009583,2.2 60.7902108,2.2 C61.6106443,2.2 62.3920094,2.63214286 62.7045555,2.86785714 L63.3687159,1.76785714 C62.5092142,1.13928571 61.6106443,0.825 60.5948695,0.825 C58.407047,0.825 56.9615215,2.27857143 56.9615215,3.88928571 C56.9615215,5.30357143 57.9772962,6.24642857 58.7195931,6.95357143 C57.1177945,7.7 55.7894737,9.11428571 55.7894737,10.9214286 C55.7894737,11.7464286 56.3754976,15.0071429 60.6339378,15.0071429 C62.5092142,15.0071429 64.0719446,14.1428571 65.1267876,12.9642857 L67.3536783,15.0071429 L69.0726817,14.1428571 L66.1425623,11.55 Z M60.9074156,13.6714286 C58.8367979,13.6714286 57.8600914,11.9428571 57.8600914,10.6857143 C57.8600914,9.54642857 58.3679788,8.525 59.6181631,7.85714286 L64.2282176,12.0214286 C63.6421937,12.8071429 62.3920094,13.6714286 60.9074156,13.6714286 Z" id="Shape"></path>
                    <path d="M8.00899307,32.7642857 C7.50110571,32.7642857 7.30576441,32.2928571 7.38390093,31.8607143 C6.8369453,32.6071429 6.28998968,32.8428571 5.39141973,32.8428571 C4.41471325,32.8428571 3.63334808,32.0571429 3.63334808,31.075 C3.63334808,29.0714286 5.78210231,28.6 7.34483267,28.5214286 L7.34483267,28.1285714 C7.34483267,27.3428571 6.91508182,26.675 6.09464839,26.675 C5.58676102,26.675 4.88353236,26.8714286 4.41471325,27.0285714 L4.41471325,26.5571429 C4.96166888,26.2035714 5.7039658,25.9285714 6.3681262,25.9285714 C7.54017396,25.9285714 8.3606074,26.7535714 8.3606074,27.8928571 L8.3606074,30.9571429 C8.3606074,31.1535714 8.3606074,31.9 8.47781218,32.0571429 C8.5559487,32.175 8.71222173,32.1357143 8.86849477,32.1357143 L8.86849477,32.6071429 C8.51688044,32.725 8.28247088,32.7642857 8.00899307,32.7642857 Z M7.34483267,29.2285714 C6.40719446,29.2285714 4.61005455,29.5035714 4.61005455,30.8 C4.61005455,31.5857143 4.96166888,32.0571429 5.78210231,32.0571429 C7.11042312,32.0571429 7.34483267,30.8785714 7.34483267,29.7785714 L7.34483267,29.2285714 Z" id="Shape"></path>
                    <path d="M14.5333923,32.725 L14.5333923,28.4428571 C14.5333923,27.5 14.2989828,26.8321429 13.2050715,26.8321429 C12.5799794,26.8321429 11.7986142,27.1071429 11.2516586,27.5 L11.2516586,32.725 L10.2749521,32.725 L10.2749521,26.1642857 L11.2516586,26.1642857 L11.2516586,26.675 C11.8767507,26.3607143 12.8925254,25.9678571 13.5957541,25.9678571 C15.1194162,25.9678571 15.5100988,27.1071429 15.5100988,28.4428571 L15.5100988,32.6857143 L14.5333923,32.6857143 L14.5333923,32.725 Z" id="Shape"></path>
                    <path d="M20.7452455,25.3392857 C20.2373581,25.3392857 19.8466755,24.9464286 19.8466755,24.4357143 C19.8466755,23.925 20.2764264,23.5321429 20.7452455,23.5321429 C21.2531328,23.5321429 21.6438154,23.925 21.6438154,24.4357143 C21.6438154,24.9071429 21.2531328,25.3392857 20.7452455,25.3392857 Z M19.8857438,32.725 L19.8857438,26.1642857 L21.6047472,26.1642857 L21.6047472,32.6857143 L19.8857438,32.6857143 L19.8857438,32.725 Z" id="Shape"></path>
                    <path d="M27.464986,32.725 L27.464986,28.7178571 C27.464986,28.0107143 27.3868495,27.225 26.4882795,27.225 C25.9803922,27.225 25.3553,27.4214286 24.9255492,27.6964286 L24.9255492,32.6857143 L23.2065458,32.6857143 L23.2065458,26.1642857 L24.9255492,26.1642857 L24.9255492,26.8321429 C25.5115731,26.4 26.4492113,25.9678571 27.1915082,25.9678571 C28.5588972,25.9678571 29.1839894,26.9892857 29.1839894,28.2857143 L29.1839894,32.725 L27.464986,32.725 L27.464986,32.725 Z" id="Shape"></path>
                    <path d="M33.9112487,24.75 C32.9736105,24.75 32.7782692,25.3 32.7782692,26.125 L34.5754091,26.125 L34.5754091,27.1464286 L32.7782692,27.1464286 L32.7782692,32.6464286 L31.0592658,32.6464286 L31.0592658,27.1464286 L30.0044228,27.1464286 L30.0044228,26.125 L31.0592658,26.125 C31.0592658,24.7107143 31.684358,23.6892857 33.2080201,23.6892857 C33.7159074,23.6892857 34.2237948,23.8464286 34.6926139,24.0821429 L34.6926139,24.7892857 C34.4191361,24.7892857 34.1456583,24.75 33.9112487,24.75 Z" id="Shape"></path>
                    <path d="M38.3650302,32.8428571 C36.1772077,32.8428571 35.00516,31.5071429 35.00516,29.3464286 C35.00516,27.1464286 36.1772077,25.9285714 38.3650302,25.9285714 C40.5137845,25.9285714 41.7249005,27.1857143 41.7249005,29.3464286 C41.7639687,31.5464286 40.591921,32.8428571 38.3650302,32.8428571 Z M38.3650302,27.1071429 C37.1148459,27.1071429 36.6850951,28.2857143 36.6850951,29.3857143 C36.6850951,30.4464286 37.0757777,31.7821429 38.3650302,31.7821429 C39.6542828,31.7821429 40.0449654,30.4857143 40.0449654,29.3857143 C40.0449654,28.325 39.6152145,27.1071429 38.3650302,27.1071429 Z" id="Shape"></path>
                    <path d="M46.1396137,27.3035714 C45.5926581,27.3035714 44.967566,27.6571429 44.6159516,28.05 L44.6159516,32.6857143 L42.8969483,32.6857143 L42.8969483,26.1642857 L44.6159516,26.1642857 L44.6159516,27.0285714 C44.9284977,26.4 45.9833407,25.9678571 46.6475011,25.9678571 L46.8819107,25.9678571 L46.8819107,27.5 C46.6865694,27.3428571 46.334955,27.3035714 46.1396137,27.3035714 Z" id="Shape"></path>
                    <path d="M56.0238832,32.725 L56.0238832,28.7178571 C56.0238832,27.9714286 55.8676102,27.225 55.0081085,27.225 C54.5392894,27.225 54.0704703,27.4214286 53.6797877,27.6964286 C53.718856,27.8535714 53.718856,28.05 53.718856,28.2464286 L53.718856,32.6857143 L51.9607843,32.6857143 L51.9607843,28.7178571 C51.9607843,28.0107143 51.8826478,27.225 50.9840778,27.225 C50.554327,27.225 50.0073714,27.4214286 49.655757,27.6964286 L49.655757,32.6857143 L47.9367536,32.6857143 L47.9367536,26.1642857 L49.655757,26.1642857 L49.655757,26.8321429 C50.2027127,26.4 51.1012826,25.9678571 51.765443,25.9678571 C52.5077399,25.9678571 53.0937638,26.2821429 53.4063099,26.95 C54.031402,26.5178571 54.9690402,25.9678571 55.7504054,25.9678571 C57.1568627,25.9678571 57.7428866,26.9892857 57.7428866,28.2857143 L57.7428866,32.725 L56.0238832,32.725 L56.0238832,32.725 Z" id="Shape"></path>
                    <path d="M63.4859207,32.7642857 C62.8217603,32.7642857 62.8608285,32.175 62.782692,31.7428571 C62.3138729,32.3714286 61.4543712,32.8821429 60.673006,32.8821429 C59.6181631,32.8821429 58.6805248,32.175 58.6805248,31.0357143 C58.6805248,28.9142857 61.0246204,28.6392857 62.6654872,28.6 L62.6654872,28.2071429 C62.6654872,27.4607143 62.0403951,27.1071429 61.3762347,27.1071429 C60.7120743,27.1071429 60.0479139,27.1857143 59.4228218,27.4214286 L59.4228218,26.675 C60.1260504,26.2428571 60.9074156,25.9678571 61.727849,25.9678571 C63.0171016,25.9678571 64.3454224,26.5178571 64.3454224,28.0107143 L64.3454224,30.525 C64.3454224,30.7607143 64.3063541,31.9392857 64.5016954,32.0964286 C64.5798319,32.1357143 64.6970367,32.1357143 64.7751732,32.1357143 L64.7751732,32.725 C64.3454224,32.725 63.9156715,32.7642857 63.4859207,32.7642857 Z M60.36046,30.7607143 C60.36046,31.35 60.7511426,31.7428571 61.2980982,31.7428571 C62.0403951,31.7428571 62.6654872,31.1142857 62.6654872,30.4071429 L62.6654872,29.4642857 C61.9231903,29.5035714 60.36046,29.7785714 60.36046,30.7607143 Z" id="Shape"></path>
                    <path d="M71.6511868,32.8428571 C71.1042312,32.8428571 70.2837977,32.5678571 69.7368421,32.3714286 L69.7368421,32.6857143 L68.7601356,32.6857143 L68.7601356,23.6107143 L69.7368421,23.6107143 L69.7368421,27.1464286 C70.2056612,26.4392857 70.9870264,25.9678571 71.8465281,25.9678571 C73.6827363,25.9678571 74.3859649,27.6571429 74.3859649,29.2678571 C74.3859649,30.9571429 73.6045997,32.8428571 71.6511868,32.8428571 Z M71.6511868,26.8321429 C70.7135486,26.8321429 69.7759104,27.5 69.7759104,28.5214286 L69.7759104,31.7428571 C70.2837977,31.9392857 71.0260946,32.0964286 71.5730503,32.0964286 C72.9795076,32.0964286 73.4092584,30.5642857 73.4092584,29.425 C73.4092584,28.2071429 73.0576441,26.8321429 71.6511868,26.8321429 Z" id="Shape"></path>
                    <path d="M80.0899307,32.725 L80.0899307,32.0571429 C79.4648386,32.4107143 78.4490638,32.8821429 77.7458352,32.8821429 C76.2221731,32.8821429 75.8314905,31.7428571 75.8314905,30.4071429 L75.8314905,26.1642857 L76.808197,26.1642857 L76.808197,30.4464286 C76.808197,31.3892857 77.0426065,32.0571429 78.1365178,32.0571429 C78.8006782,32.0571429 79.5820433,31.7035714 80.0899307,31.2714286 L80.0899307,26.1642857 L81.0666372,26.1642857 L81.0666372,32.6857143 L80.0899307,32.6857143 L80.0899307,32.725 Z" id="Shape"></path>
                    <path d="M84.7781218,32.8428571 C84.1139614,32.8428571 83.2935279,32.5285714 82.7075041,32.175 L82.7075041,31.4285714 C83.2544597,31.7428571 84.1139614,32.1357143 84.7390535,32.1357143 C85.4422822,32.1357143 86.0673743,31.7428571 86.0673743,30.9964286 C86.0673743,29.5035714 82.6293675,30.1714286 82.6293675,27.8535714 C82.6293675,26.6357143 83.6842105,25.9678571 84.81719,25.9678571 C85.4813504,25.9678571 86.0283061,26.1642857 86.5752617,26.4785714 L86.5752617,27.1071429 C85.872033,26.8321429 85.2860091,26.7535714 84.7781218,26.7535714 C84.1139614,26.7535714 83.5279375,27.1071429 83.5279375,27.8142857 C83.5279375,29.1892857 87.0050125,28.6785714 87.0050125,30.9178571 C87.0440808,32.1357143 85.9111013,32.8428571 84.7781218,32.8428571 Z" id="Shape"></path>
                    <path d="M89.036562,24.9857143 C88.7240159,24.9857143 88.4114699,24.75 88.4114699,24.4357143 C88.4114699,24.1214286 88.6458794,23.8071429 88.9974937,23.8071429 C89.3100398,23.8071429 89.6225859,24.0428571 89.6225859,24.3964286 C89.6225859,24.7107143 89.3881763,24.9857143 89.036562,24.9857143 Z M88.4896064,32.725 L88.4896064,26.1642857 L89.4663128,26.1642857 L89.4663128,32.6857143 L88.4896064,32.6857143 L88.4896064,32.725 Z" id="Shape"></path>
                    <path d="M95.7563025,32.725 L95.7563025,28.4428571 C95.7563025,27.5 95.521893,26.8321429 94.4279817,26.8321429 C93.8028896,26.8321429 93.0215244,27.1071429 92.4745688,27.5 L92.4745688,32.725 L91.4978623,32.725 L91.4978623,26.1642857 L92.4745688,26.1642857 L92.4745688,26.675 C93.0996609,26.3607143 94.1154356,25.9678571 94.8186643,25.9678571 C96.3423264,25.9678571 96.733009,27.1071429 96.733009,28.4428571 L96.733009,32.6857143 L95.7563025,32.6857143 L95.7563025,32.725 Z" id="Shape"></path>
                    <path d="M99.1161728,29.5821429 C99.1161728,30.9178571 99.8194014,32.0964286 101.264927,32.0964286 C101.929087,32.0964286 102.632316,31.9785714 103.257408,31.7821429 L103.257408,32.4892857 C102.593248,32.7642857 101.850951,32.8821429 101.147722,32.8821429 C99.0771045,32.8821429 98.1394663,31.5071429 98.1394663,29.5035714 C98.1394663,27.6178571 99.0380363,26.0464286 101.069586,26.0464286 C102.827657,26.0464286 103.569954,27.5392857 103.569954,29.1107143 L103.569954,29.5821429 L99.1161728,29.5821429 L99.1161728,29.5821429 Z M100.991449,26.675 C99.8584697,26.675 99.1161728,27.8928571 99.1161728,28.9142857 L102.671384,28.9142857 C102.671384,27.9321429 102.163497,26.675 100.991449,26.675 Z" id="Shape"></path>
                    <path d="M106.773552,32.8428571 C106.109391,32.8428571 105.288958,32.5285714 104.702934,32.175 L104.702934,31.4285714 C105.249889,31.7428571 106.109391,32.1357143 106.734483,32.1357143 C107.437712,32.1357143 108.062804,31.7428571 108.062804,30.9964286 C108.062804,29.5035714 104.624797,30.1714286 104.624797,27.8535714 C104.624797,26.6357143 105.67964,25.9678571 106.81262,25.9678571 C107.47678,25.9678571 108.023736,26.1642857 108.570691,26.4785714 L108.570691,27.1071429 C107.867463,26.8321429 107.281439,26.7535714 106.773552,26.7535714 C106.109391,26.7535714 105.523367,27.1071429 105.523367,27.8142857 C105.523367,29.1892857 109.000442,28.6785714 109.000442,30.9178571 C109.078579,32.1357143 107.945599,32.8428571 106.773552,32.8428571 Z" id="Shape"></path>
                    <path d="M112.20404,32.8428571 C111.539879,32.8428571 110.719446,32.5285714 110.133422,32.175 L110.133422,31.4285714 C110.680377,31.7428571 111.539879,32.1357143 112.164971,32.1357143 C112.8682,32.1357143 113.493292,31.7428571 113.493292,30.9964286 C113.493292,29.5035714 110.055285,30.1714286 110.055285,27.8535714 C110.055285,26.6357143 111.110128,25.9678571 112.243108,25.9678571 C112.907268,25.9678571 113.454224,26.1642857 114.001179,26.4785714 L114.001179,27.1071429 C113.297951,26.8321429 112.711927,26.7535714 112.20404,26.7535714 C111.539879,26.7535714 110.953855,27.1071429 110.953855,27.8142857 C110.953855,29.1892857 114.43093,28.6785714 114.43093,30.9178571 C114.509067,32.1357143 113.376087,32.8428571 112.20404,32.8428571 Z" id="Shape"></path>
                </g>
            </g>
        </g>
    </g>
</svg>