<?xml version="1.0" encoding="UTF-8"?>
<svg width="48px" height="49px" viewBox="0 0 48 49" version="1.1" xmlns="http://www.w3.org/2000/svg" xmlns:xlink="http://www.w3.org/1999/xlink">
    <!-- Generator: Sketch 43.2 (39069) - http://www.bohemiancoding.com/sketch -->
    <title>tfgroup-logo-black</title>
    <desc>Created with Sketch.</desc>
    <defs></defs>
    <g id="Page-1" stroke="none" stroke-width="1" fill="none" fill-rule="evenodd">
        <g id="tfgroup-logo-black" fill-rule="nonzero">
            <g id="Group">
                <ellipse id="Oval" fill="#00AACC" cx="23.9885621" cy="24.63125" rx="23.9885621" ry="24.2375"></ellipse>
                <polygon id="Shape" fill="#FFFFFF" points="17.2769608 24.98125 31.2630719 24.98125 31.7826797 23.8 16.8006536 23.8"></polygon>
                <polygon id="Shape" fill="#FFFFFF" points="16.5408497 23.14375 32.0424837 23.14375 32.5187908 22.00625 16.0212418 22.00625"></polygon>
                <path d="M8.66013072,16.625 C8.66013072,16.625 5.67238562,23.31875 8.70343137,23.40625 C8.70343137,23.40625 11.5179739,23.5375 8.66013072,16.625 Z" id="Shape" fill="#FFFFFF"></path>
                <path d="M26.7598039,14.7875 C26.7598039,14.7875 19.5285948,17.98125 24.0751634,20.9125 C24.0751634,20.9125 23.8586601,18.50625 26.7598039,14.7875 Z" id="Shape" fill="#FFFFFF"></path>
                <path d="M36.8055556,25.55 L10.4787582,25.55 L10.4787582,24.89375 L6.97140523,24.89375 L6.97140523,25.55 L6.14869281,25.55 L7.01470588,27.60625 L11.3880719,27.60625 C13.8129085,32.2875 18.619281,35.4375 24.1617647,35.4375 C28.0155229,35.4375 31.5661765,33.90625 34.120915,31.36875 C40.6160131,31.9375 42.2181373,24.0625 42.2181373,24.0625 L36.8055556,25.55 Z M35.2034314,30.3625 C35.6797386,29.79375 36.1127451,29.18125 36.5457516,28.525 C36.5457516,28.525 37.2385621,27.43125 37.628268,26.425 L40.8325163,25.55 C38.9272876,29.96875 36.0261438,30.31875 35.2034314,30.3625 Z" id="Shape" fill="#FFFFFF"></path>
            </g>
        </g>
    </g>
</svg>