<?xml version="1.0" encoding="utf-8"?>
<!-- Generator: Adobe Illustrator 15.1.0, SVG Export Plug-In . SVG Version: 6.00 Build 0)  -->
<!DOCTYPE svg PUBLIC "-//W3C//DTD SVG 1.1//EN" "http://www.w3.org/Graphics/SVG/1.1/DTD/svg11.dtd">
<svg version="1.1" id="Layer_1" xmlns="http://www.w3.org/2000/svg" xmlns:xlink="http://www.w3.org/1999/xlink" x="0px" y="0px"
	 width="78px" height="78px" viewBox="0.5 600.5 78 78" enable-background="new 0.5 600.5 78 78" xml:space="preserve">
<path fill="#FFFFFF" d="M30.501,602.5C15.037,602.5,2.5,615.037,2.5,630.501s12.537,28.001,28.001,28.001
	c15.465,0,28.002-12.537,28.002-28.001S45.966,602.5,30.501,602.5z M30.487,654.499c-13.257,0-24.004-10.747-24.004-24.004
	s10.747-24.004,24.004-24.004s24.004,10.746,24.004,24.003S43.744,654.499,30.487,654.499z"/>
<path fill="#FFFFFF" d="M49.338,657.281l7.778-7.778l22.53,22.53l-7.778,7.778L49.338,657.281z"/>
<path fill="#FFFFFF" d="M46.561,650.03l3.536-3.536l26.329,26.33l-3.535,3.536L46.561,650.03z"/>
</svg>
