<?xml version="1.0" encoding="UTF-8" standalone="no"?>
<svg width="1000px" height="357px" viewBox="0 0 1000 357" version="1.1" xmlns="http://www.w3.org/2000/svg" xmlns:xlink="http://www.w3.org/1999/xlink" xmlns:sketch="http://www.bohemiancoding.com/sketch/ns">
    <!-- Generator: Sketch 3.2 (9964) - http://www.bohemiancoding.com/sketch -->
    <title>logo-science-aaas</title>
    <desc>Created with Sketch.</desc>
    <defs></defs>
    <g id="Page-1" stroke="none" stroke-width="1" fill="none" fill-rule="evenodd" sketch:type="MSPage">
        <g id="logo-science-aaas" sketch:type="MSLayerGroup" fill="#FFFFFF">
            <path d="M26.8551237,338.443069 L15.1943463,355.586139 L3.00353357,355.586139 L0.706713781,267.926733 L9.01060071,267.926733 C23.6749117,307.514851 45.9363958,345.512376 89.3992933,345.512376 C120.848057,345.512376 136.219081,326.425248 136.219081,298.324752 C136.219081,275.526238 124.558304,258.206436 101.766784,248.662871 C82.3321555,240.356436 68.3745583,235.231188 48.9399293,226.217822 C23.1448763,214.2 7.4204947,193.168812 7.4204947,160.65 C7.4204947,121.061881 38.869258,91.3707921 80.0353357,91.3707921 C98.0565371,91.3707921 120.318021,99.1470297 132.862191,109.397525 L143.816254,92.4311881 L156.537102,92.4311881 L158.303887,177.262871 L150.176678,177.262871 C135.865724,134.84703 119.257951,102.328218 73.1448763,102.328218 C63.0742049,102.328218 37.4558304,111.164851 37.4558304,140.502475 C37.4558304,163.30099 47.5265018,176.379208 68.9045936,188.927228 C86.0424028,199.00099 103.710247,203.59604 119.081272,211.018812 C147.526502,225.510891 168.551237,240.356436 168.551237,279.060891 C168.551237,324.834653 134.09894,356.823267 87.2791519,356.823267 C58.3038869,356.646535 37.8091873,347.279703 26.8551237,338.443069 L26.8551237,338.443069 Z" id="Shape-2" sketch:type="MSShapeGroup"></path>
            <path d="M178.268551,266.512871 C178.268551,220.385644 207.95053,177.793069 255.300353,177.793069 C290.459364,177.793069 308.480565,198.294059 308.480565,221.269307 C308.480565,233.463861 301.413428,242.300495 289.399293,242.300495 C282.685512,242.300495 269.081272,238.235644 269.081272,223.566832 C269.081272,207.660891 273.498233,207.484158 273.498233,200.414851 C271.731449,189.457426 266.431095,186.983168 254.770318,186.983168 C234.805654,186.806436 215.194346,206.777228 215.194346,263.15495 C215.194346,308.398515 231.625442,339.856931 260.954064,339.856931 C284.09894,339.856931 298.409894,328.192574 309.363958,306.454455 L316.961131,311.756436 C304.240283,336.49901 280.212014,356.293069 253.003534,356.293069 C203.003534,356.469802 178.268551,318.118812 178.268551,266.512871 L178.268551,266.512871 Z" id="Shape-3" sketch:type="MSShapeGroup"></path>
            <path d="M318.551237,344.45198 C324.558304,343.921782 329.5053,343.391584 333.922261,341.80099 C340.459364,339.503465 343.286219,332.434158 343.286219,324.834653 L343.286219,217.381188 C342.579505,209.60495 339.575972,202.712376 333.922261,198.647525 C329.858657,195.819802 319.257951,191.931683 313.427562,191.578218 L313.427562,184.508911 L374.911661,180.444059 L377.208481,183.09505 L377.208481,322.537129 C377.208481,330.313366 380.565371,336.852475 386.572438,339.680198 C391.872792,342.331188 397.70318,343.74505 401.943463,344.098515 L401.943463,351.69802 L318.904594,351.69802 L318.904594,344.275248 L318.551237,344.275248 L318.551237,344.45198 Z M334.628975,114.522772 C334.628975,101.79802 344.699647,90.8405941 357.067138,90.8405941 C370.848057,90.8405941 380.212014,100.914356 380.212014,112.932178 C380.212014,126.010396 370.4947,137.144554 357.067138,137.144554 C344.699647,137.144554 334.628975,126.717327 334.628975,114.522772 Z" id="Shape-4" sketch:type="MSShapeGroup"></path>
            <path d="M402.29682,265.805941 C402.29682,220.739109 429.328622,177.793069 475.441696,177.793069 C522.614841,177.793069 540.282686,211.372277 540.282686,249.723267 L540.282686,253.081188 L439.045936,253.081188 L439.045936,257.14604 C439.045936,305.570792 453.35689,339.856931 488.515901,339.856931 C513.957597,339.856931 523.321555,329.429703 536.042403,306.454455 L542.756184,310.872772 C530.742049,337.382673 507.597173,356.116337 478.798587,356.116337 C426.678445,356.469802 402.29682,315.291089 402.29682,265.805941 Z M504.240283,244.244554 C504.240283,217.204455 498.939929,186.45297 475.088339,186.45297 C454.770318,186.45297 439.929329,209.60495 439.222615,244.774752 L504.240283,244.244554 Z" id="Shape-5" sketch:type="MSShapeGroup"></path>
            <path d="M542.226148,344.45198 C548.233216,343.921782 553.180212,343.391584 557.597173,341.80099 C564.134276,339.503465 566.961131,333.141089 566.961131,324.834653 L566.961131,217.381188 C566.254417,209.60495 563.250883,201.475248 557.597173,197.587129 C553.886926,194.759406 546.466431,191.931683 540.459364,191.578218 L540.459364,184.508911 L598.233216,180.444059 L600.883392,183.09505 L600.883392,208.544554 L601.413428,208.544554 C614.487633,194.759406 627.208481,177.793069 656.007067,177.793069 C687.45583,177.793069 702.120141,201.475248 702.120141,236.821782 L702.120141,323.244059 C702.120141,331.550495 704.770318,337.029208 710.777385,340.210396 C715.724382,342.507921 720.141343,343.921782 726.678445,344.275248 L726.678445,351.874752 L643.109541,351.874752 L643.109541,344.275248 C648.763251,343.74505 654.770318,343.214851 659.010601,341.624257 C665.547703,339.326733 667.844523,332.964356 667.844523,324.657921 L667.844523,236.114851 C667.844523,210.311881 655.123675,196.526733 640.812721,196.526733 C617.137809,196.526733 604.063604,212.432673 600.706714,220.739109 L600.706714,323.067327 C600.706714,331.373762 603.533569,336.852475 609.363958,340.033663 C613.780919,342.684653 619.787986,344.098515 625.265018,344.45198 L625.265018,352.051485 L542.579505,352.051485 L542.579505,344.45198 L542.226148,344.45198 L542.226148,344.45198 Z" id="Shape-6" sketch:type="MSShapeGroup"></path>
            <path d="M720.318021,266.512871 C720.318021,220.385644 750,177.793069 797.349823,177.793069 C832.508834,177.793069 850.530035,198.294059 850.530035,221.269307 C850.530035,233.463861 843.462898,242.300495 831.448763,242.300495 C824.734982,242.300495 811.130742,238.235644 811.130742,223.566832 C811.130742,207.660891 815.547703,207.484158 815.547703,200.414851 C813.780919,189.457426 808.480565,186.983168 796.819788,186.983168 C776.501767,186.983168 757.243816,206.777228 757.243816,263.508416 C757.243816,308.75198 773.674912,340.210396 803.003534,340.210396 C826.14841,340.210396 840.459364,328.54604 851.413428,306.807921 L859.010601,312.109901 C846.289753,336.852475 822.261484,356.646535 795.053004,356.646535 C744.876325,356.469802 720.318021,318.118812 720.318021,266.512871 L720.318021,266.512871 Z" id="Shape-7" sketch:type="MSShapeGroup"></path>
            <path d="M859.187279,265.805941 C859.187279,220.739109 886.219081,177.793069 932.332155,177.793069 C979.5053,177.793069 997.173145,211.372277 997.173145,249.723267 L997.173145,253.081188 L895.936396,253.081188 L895.936396,257.14604 C895.936396,305.570792 910.24735,339.856931 945.40636,339.856931 C970.848057,339.856931 980.212014,329.429703 992.932862,306.454455 L999.646643,310.872772 C987.632509,337.382673 964.487633,356.116337 935.689046,356.116337 C883.392226,356.469802 859.187279,315.291089 859.187279,265.805941 L859.187279,265.805941 Z M960.954064,244.244554 C960.954064,217.204455 955.65371,186.45297 931.80212,186.45297 C911.484099,186.45297 896.64311,209.60495 895.936396,244.774752 L960.954064,244.244554 L960.954064,244.244554 Z" id="Shape-8" sketch:type="MSShapeGroup"></path>
            <path d="M689.642804,0.87470492 C699.359778,10.2667523 723.820679,85.2340463 729.401747,102.340476 L729.401747,0.87470492 L689.642804,0.87470492 Z M703.515528,102.193494 C697.927663,84.7720088 676.729028,10.7360869 665.458109,1.02048907 L627.430069,1.02048907 L627.430069,102.191098 L628.251503,102.191098 L665.062082,3.53322629 L634.301205,102.191098 L635.287161,102.191098 L668.841383,10.2330604 L640.904405,102.187505 L642.219404,102.187505 L672.620684,18.2742986 L647.696805,102.109656 L648.847283,102.109656 L664.568516,67.6870725 L660.789215,67.6870725 L676.072116,26.3143391 L664.568516,67.6834795 L668.019949,67.6834795 L654.050872,102.194692 L703.515528,102.194692 L703.515528,102.193494 Z" id="Shape-9" sketch:type="MSShapeGroup"></path>
            <path d="M983.70488,59.2308888 L980.945347,57.0235908 C971.430077,49.0931347 969.102787,45.8600777 969.102787,40.5599256 C969.102787,33.8936931 973.783279,29.4155856 980.746301,29.4155856 C989.035505,29.4155856 991.829195,32.9554115 992.644217,34.4760747 C993.184818,35.4850571 993.77253,38.1141623 993.869109,39.2969004 C993.960972,40.0482445 994.08464,41.0476402 995.135219,41.0476402 C996.304751,41.0476402 996.304751,39.2297946 996.304751,38.2531672 C996.304751,32.9086774 996.547373,29.7295445 996.65102,28.3730509 L996.699308,27.6241033 C996.699308,26.569585 995.916085,26.4341751 995.234152,26.4341751 C994.532198,26.4341751 993.821996,26.3586814 991.883373,25.9428656 C989.057883,25.2526355 986.109905,24.9290902 982.618969,24.9290902 C969.934299,24.9290902 961.73814,32.2064642 961.73814,43.4682388 C961.73814,50.2459147 963.947654,56.6053783 974.725501,65.6071289 L979.159835,69.3171158 C987.92015,76.675975 990.319284,80.4746369 990.319284,86.9910801 C990.319284,93.3757081 985.643503,99.8406237 976.705347,99.8406237 C973.0507,99.8406237 964.359873,98.8819706 962.590851,90.0024482 C962.304652,88.6447564 962.304652,87.287064 962.304652,86.3895255 C962.304652,85.7939622 962.304652,84.7981613 961.135118,84.7981613 C960.05156,84.7981613 959.932606,86.130689 959.869005,86.8460837 C959.867827,86.8604635 959.784205,88.0551848 959.784205,88.0551848 C959.629916,90.0779423 959.374339,93.4655819 959.374339,97.5206835 C959.374339,100.184541 959.445008,100.916712 961.11745,101.767516 L961.122161,101.769912 C964.859253,103.624906 969.246476,104.527238 974.538234,104.527238 C980.491905,104.527238 985.731837,103.040128 989.693885,100.226482 C996.022085,95.6537074 998.275176,88.4230677 998.275176,83.1804347 C998.275176,75.4129496 995.891354,69.0043554 983.70488,59.2308888 Z M955.480333,100.823246 C954.526754,100.823246 953.099325,100.722482 951.695414,100.247454 C949.524875,99.6140829 946.875787,97.8339265 943.527095,89.3841821 C939.248336,78.5089149 930.187581,54.3604471 924.774171,39.9308651 L920.604765,28.8540709 C919.452474,25.8155697 918.968044,24.9302897 917.994476,24.9302897 C917.027963,24.9302897 916.568225,25.8335631 915.379485,29.1671578 L893.046232,91.5086138 C891.155538,96.8718743 889.258962,100.081914 885.170687,100.626517 C885.170687,100.626517 884.939053,100.64331 884.612182,100.664903 C884.037212,100.577335 883.431672,100.452579 882.826132,100.246254 C880.654419,99.6128834 878.005328,97.832727 874.656634,89.3829824 C870.373174,78.4909215 861.300658,54.3136642 855.880195,39.8672885 L851.734305,28.8540709 C850.583191,25.8155697 850.098759,24.9302897 849.125192,24.9302897 C848.157504,24.9302897 847.697764,25.8335631 846.509024,29.1671578 L824.175774,91.5086138 C822.283903,96.8718743 820.387328,100.081914 816.300228,100.626517 C816.300228,100.626517 816.068594,100.64331 815.74172,100.664903 C815.167927,100.577335 814.561211,100.452579 813.955672,100.246254 C811.785135,99.6128834 809.136045,97.832727 805.786175,89.3829824 C801.508594,78.5077152 792.446661,54.3592479 787.033252,39.9296659 L782.863845,28.8528714 C781.71038,25.8143702 781.2283,24.9290902 780.253557,24.9290902 C779.287044,24.9290902 778.827304,25.8323637 777.639741,29.1659581 L755.305315,91.5074143 C753.413443,96.8706751 751.518045,100.080714 747.429769,100.625317 C747.427417,100.625317 744.638406,100.822046 744.638406,100.822046 C743.822397,100.822046 743.274472,101.259888 743.274472,101.912452 C743.274472,103.204384 744.860633,103.204384 745.622556,103.204384 L754.49636,102.978866 L756.739797,102.904493 L759.236032,103.011254 L764.41428,103.205584 C766.029837,103.205584 766.368469,102.502638 766.368469,101.913651 C766.368469,101.506998 766.179164,100.823246 764.905767,100.823246 L763.921618,100.823246 C762.661154,100.823246 760.662285,100.164684 760.662285,98.4001218 C760.662285,96.6355601 761.140837,94.3060022 762.010934,91.8396941 C762.014461,91.8300978 767.917005,74.0633224 767.917005,74.0633224 C768.087497,73.6302791 768.273274,73.591893 768.447293,73.591893 L789.600035,73.591893 C789.858712,73.591893 789.915151,73.6326781 790.057424,73.9241728 C790.0586,73.9313702 799.187554,98.5728593 799.187554,98.5728593 C799.329826,98.9591196 799.40155,99.3189897 799.40155,99.6344753 C799.40155,99.8707899 799.360397,100.083113 799.278091,100.25945 C799.148752,100.536549 798.966502,100.624118 798.894778,100.648109 C798.015276,100.872428 797.878882,101.47461 797.878882,101.814087 C797.878882,102.832519 798.990018,102.888899 800.83133,102.983664 L801.282839,103.006456 C804.976044,103.115617 809.447633,103.182792 814.096768,103.201986 C814.241393,103.205584 814.37661,103.207983 814.491839,103.207983 L814.629408,103.204384 C815.336067,103.206784 816.043902,103.207983 816.755265,103.207983 C817.170324,103.207983 817.530121,103.179194 817.839358,103.122814 L823.365644,102.982465 L825.609081,102.908091 L828.10414,103.014853 L833.282388,103.209183 C834.897945,103.209183 835.236577,102.506237 835.236577,101.91725 C835.236577,101.510597 835.047272,100.826844 833.77505,100.826844 L832.790901,100.826844 C831.531613,100.826844 829.531568,100.168283 829.531568,98.4037204 C829.531568,96.6391585 830.010121,94.3096011 830.879041,91.843293 C830.882568,91.8336962 836.786288,74.0669214 836.786288,74.0669214 C836.955604,73.6338778 837.141382,73.5954915 837.316577,73.5954915 L858.469319,73.5954915 C858.727996,73.5954915 858.783259,73.636277 858.925531,73.9265718 C858.925531,73.9337692 868.056837,98.576458 868.056837,98.576458 C868.197934,98.9627186 868.270834,99.3225881 868.270834,99.6380742 C868.270834,99.8743886 868.229681,100.086712 868.147374,100.263048 C868.018036,100.540148 867.835786,100.627716 867.764062,100.651708 C866.884559,100.876027 866.749342,101.478209 866.749342,101.817686 C866.749342,102.836118 867.859302,102.892497 869.702965,102.987263 L870.154474,103.010055 C873.84768,103.119215 878.319267,103.186391 882.968403,103.205584 C883.111854,103.209183 883.247069,103.211582 883.362298,103.211582 L883.498691,103.207983 C884.205352,103.210382 884.914361,103.211582 885.625724,103.211582 C886.039608,103.211582 886.400582,103.182792 886.709819,103.126413 L892.237279,102.986064 L894.479541,102.91169 L896.975777,103.018452 L902.152848,103.212781 C903.768404,103.212781 904.108212,102.509836 904.108212,101.920849 C904.108212,101.514196 903.91773,100.830443 902.644335,100.830443 L901.661361,100.830443 C900.400898,100.830443 898.402026,100.171881 898.402026,98.4073194 C898.402026,96.6427575 898.880581,94.3131996 899.7495,91.8468915 C899.753028,91.8372952 905.65675,74.0705198 905.65675,74.0705198 C905.82724,73.6374763 906.011841,73.5990904 906.187038,73.5990904 L927.338602,73.5990904 C927.598454,73.5990904 927.653716,73.6398755 927.797167,73.9313702 C927.797167,73.9385673 936.927297,98.5800569 936.927297,98.5800569 C937.068394,98.966317 937.141293,99.3261868 937.141293,99.6416729 C937.141293,99.8779876 937.101316,100.09031 937.019009,100.266647 C936.888493,100.543747 936.706246,100.631315 936.635696,100.655306 C935.755018,100.879625 935.618625,101.481807 935.618625,101.821285 C935.618625,102.839716 936.730937,102.896096 938.573424,102.990862 L939.024934,103.013653 C943.416566,103.143207 948.907579,103.21518 954.497359,103.21518 C956.119972,103.21518 956.943035,102.780938 956.943035,101.923248 C956.94421,101.190313 956.451548,100.823246 955.480333,100.823246 Z M926.051196,68.9559044 L907.458885,68.9559044 C907.461234,68.9451089 907.467113,68.923517 907.467113,68.923517 C907.477692,68.8923292 916.134355,41.7888679 916.134355,41.7888679 C916.254261,41.4194113 916.348302,41.2250869 916.415311,41.1111313 C916.484666,41.2250869 916.57871,41.4206111 916.698613,41.7924663 C916.700966,41.7996634 926.046494,68.9031253 926.046494,68.9031253 C926.044143,68.8971274 926.042968,68.8971274 926.042968,68.9007259 C926.042968,68.9067238 926.047669,68.9355123 926.051196,68.9559044 Z M788.325073,68.9559044 L769.732761,68.9559044 C769.736288,68.9451089 769.742165,68.923517 769.742165,68.923517 C769.752744,68.8923292 778.407685,41.7888679 778.407685,41.7888679 C778.528757,41.4194113 778.622794,41.2250869 778.690971,41.1111313 C778.757973,41.2250869 778.853185,41.4206111 778.974258,41.7924663 C778.976609,41.7996634 788.320371,68.9031253 788.320371,68.9031253 C788.319195,68.8971274 788.31802,68.8971274 788.31802,68.9007259 C788.31802,68.9067238 788.322722,68.9355123 788.325073,68.9559044 Z M857.116626,68.9559044 L838.524314,68.9559044 C838.526665,68.9451089 838.532543,68.9223177 838.532543,68.9223177 C838.543124,68.8923292 847.199159,41.7888679 847.199159,41.7888679 C847.320247,41.4194113 847.414296,41.2250869 847.482481,41.1111313 C847.550667,41.2250869 847.644716,41.4194113 847.764628,41.7924663 C847.766979,41.7996634 857.113099,68.9031253 857.113099,68.9031253 C857.110748,68.8971274 857.109572,68.8959277 857.109572,68.8995264 C857.109572,68.9067238 857.114274,68.9355123 857.116626,68.9559044 Z" id="Shape-10" sketch:type="MSShapeGroup"></path>
        </g>
    </g>
</svg>