<svg xmlns="http://www.w3.org/2000/svg" width="778.08" height="109.35" viewBox="0 0 778.08 109.35"><title>e-flux-architecture</title><path fill="#e1e1e1" d="M61.71,58.25V88.53a97.55,97.55,0,0,0,1.64,18.85H54.6a61.61,61.61,0,0,1-1.06-11.61h-.3c-5,8.29-13.87,13.12-27.3,13.12-15.69,0-25.94-9.2-25.94-22C0,74.37,7.09,66.83,29.11,63.36c7.09-1.21,16.74-2.26,23.53-2.71V57C52.64,42.68,44.5,36.8,33,36.8c-13,0-19.46,7.09-20.06,17H3.17c.9-14.33,11.31-25,29.86-25C50.25,28.8,61.71,38,61.71,58.25Zm-9,10.26c-6.49.45-15.84,1.66-22.32,2.71C15,73.45,10,77.82,10,86.22,10,95.12,16.62,101,28,101c7.09,0,13.42-2.41,17.65-6.79,5.13-5.43,7.09-9.65,7.09-19.91Z"/><path fill="#e1e1e1" d="M124,30.61v8.9a43.3,43.3,0,0,0-4.83-.3c-15.23,0-23.82,9.95-23.82,27.75v40.42H86V30.76h9.2V42.83h.3c5.13-8.3,13.27-12.67,23.38-12.67A28.2,28.2,0,0,1,124,30.61Z"/><path fill="#e1e1e1" d="M194.58,57.16h-9.8C183.88,45.4,175.28,37,163.52,37c-15.38,0-24.58,12.22-24.58,32.13s9.2,32.12,24.58,32.12c11.76,0,20.21-9.65,21.26-21.11h9.8c-1.36,16.59-13.27,29.26-31.07,29.26-21.42,0-34.69-15.23-34.69-40.27s13.27-40.27,34.69-40.27C180.85,28.8,193.22,40.42,194.58,57.16Z"/><path fill="#e1e1e1" d="M222.93,41c5.28-8.14,14.33-11.91,23.68-11.91,17.65,0,27.3,10.56,27.3,31.67v46.6h-9.36V61.25c0-18.1-7.39-24-19.61-24-11.91,0-22.32,8.6-22.32,24.73v45.4h-9.35V0h9.35V41Z"/><path fill="#e1e1e1" d="M298.18,13.25V0h9.35V13.25Zm0,94.11V30.76h9.35v76.62Z"/><path fill="#e1e1e1" d="M361.22,99.08v8a33.73,33.73,0,0,1-6.94.75c-13.12,0-18.7-5.88-18.7-20.66V38.61H321.86V30.76h13.72V13h9.35v17.8h15.53v7.84H344.93V87c0,9,3,12.67,11,12.67A24.23,24.23,0,0,0,361.22,99.08Z"/><path fill="#e1e1e1" d="M427.28,84.61h9.65c-2.41,13.12-13.12,24.73-32.43,24.73-21.87,0-35-16.29-35-41.63,0-22.62,12.82-38.91,34.39-38.91,17.19,0,29.11,10.41,32.43,27.3a71.34,71.34,0,0,1,1.21,14.78H379c.45,20.37,11.33,30.47,25.49,30.47C417,101.35,425,94.41,427.28,84.61ZM379.17,63.19h49.32c-1.06-17-10.86-26.39-24.58-26.39C389.88,36.8,380.07,46.75,379.17,63.19Z"/><path fill="#e1e1e1" d="M518.07,57.16h-9.8C507.36,45.4,498.77,37,487,37c-15.38,0-24.58,12.22-24.58,32.13s9.2,32.12,24.58,32.12c11.76,0,20.21-9.65,21.27-21.11h9.8c-1.36,16.59-13.27,29.26-31.07,29.26-21.42,0-34.65-15.23-34.65-40.27S465.62,28.81,487,28.81C504.35,28.8,516.71,40.42,518.07,57.16Z"/><path fill="#e1e1e1" d="M565.42,99.08v8a33.73,33.73,0,0,1-6.94.75c-13.12,0-18.7-5.88-18.7-20.66V38.61H526.06V30.76h13.72V13h9.35v17.8h15.53v7.84H549.13V87c0,9,3,12.67,11,12.67A24.23,24.23,0,0,0,565.42,99.08Z"/><path fill="#e1e1e1" d="M581.55,77.37V30.76h9.35V76.91c0,18.1,7.39,24,19.61,24,11.92,0,22.32-8.6,22.32-24.73V30.76h9.35v76.62H633V97h-.3c-4.52,7.24-13.27,12.07-23.83,12.07C591.35,109,581.55,98.48,581.55,77.37Z"/><path fill="#e1e1e1" d="M705.22,30.61v8.9a43.32,43.32,0,0,0-4.87-.26c-15.23,0-23.83,10-23.83,27.75v40.42h-9.35V30.76h9.2V42.83h.3c5.13-8.3,13.27-12.67,23.38-12.67A28.2,28.2,0,0,1,705.22,30.61Z"/><path fill="#e1e1e1" d="M767.81,84.61h9.65C775,97.73,764.34,109.34,745,109.34c-21.87,0-35-16.29-35-41.63,0-22.62,12.82-38.91,34.39-38.91,17.19,0,29.11,10.41,32.43,27.3a71.34,71.34,0,0,1,1.21,14.78H719.55c.45,20.36,11.31,30.46,25.49,30.46C757.55,101.35,765.55,94.41,767.81,84.61ZM719.7,63.19H769c-1.06-17-10.86-26.39-24.58-26.39C730.41,36.8,720.6,46.75,719.7,63.19Z"/></svg>
