<?xml version="1.0" encoding="utf-8"?>
<!-- Generator: Adobe Illustrator 19.2.1, SVG Export Plug-In . SVG Version: 6.00 Build 0)  -->
<svg version="1.1" id="Layer_1" xmlns="http://www.w3.org/2000/svg" xmlns:xlink="http://www.w3.org/1999/xlink" x="0px" y="0px"
	 viewBox="0 0 218.3 65" style="enable-background:new 0 0 218.3 65;" xml:space="preserve">
<style type="text/css">
	.st0{display:none;}
	.st1{display:inline;fill:none;stroke:#000000;}
</style>
<g id="Layer_2" class="st0">
	<circle class="st1" cx="-450.5" cy="-145" r="306"/>
	<circle class="st1" cx="81.5" cy="226.3" r="91.8"/>
	<circle class="st1" cx="-198.4" cy="357.6" r="91.8"/>
	<circle class="st1" cx="273.2" cy="190.3" r="91.8"/>
	<circle class="st1" cx="440.5" cy="288.4" r="91.8"/>
	<circle class="st1" cx="-129.4" cy="591.6" r="91.8"/>
	<circle class="st1" cx="226.7" cy="371" r="91.8"/>
	<circle class="st1" cx="368.8" cy="517" r="91.8"/>
	<line class="st1" x1="483.5" y1="29" x2="489.5" y2="29"/>
	<line class="st1" x1="-63.8" y1="79" x2="511.5" y2="662"/>
	<line class="st1" x1="512.5" y1="373" x2="225.5" y2="663"/>
	<line class="st1" x1="225.5" y1="85.7" x2="-64.5" y2="371"/>
	<line class="st1" x1="225.5" y1="371" x2="226.7" y2="371"/>
	<line class="st1" x1="225.5" y1="371" x2="514.8" y2="87"/>
</g>
<g id="Layer_4">
	<g>
		<path d="M16.7,51.2c1.7,1.7,4.3,2.5,7.5,2.5c2.4,0,4.4-0.6,6.1-1.8c1.7-1.2,2.7-2.4,3.1-3.8h10.3c-1.6,5.1-4.2,8.8-7.5,10.9
			c-3.4,2.2-7.5,3.3-12.3,3.3c-3.3,0-6.3-0.5-9-1.6s-5-2.6-6.8-4.5c-1.9-2-3.3-4.3-4.3-7s-1.5-5.7-1.5-9c0-3.2,0.5-6.1,1.6-8.8
			c1-2.7,2.5-5.1,4.4-7.1s4.2-3.6,6.9-4.7c2.7-1.1,5.6-1.7,8.8-1.7c3.6,0,6.8,0.7,9.4,2.1c2.7,1.4,4.9,3.3,6.6,5.6
			c1.7,2.4,3,5,3.7,8c0.8,3,1,6.2,0.8,9.4H13.9C14,46.8,15,49.5,16.7,51.2z M29.9,29c-1.4-1.5-3.5-2.3-6.4-2.3
			c-1.9,0-3.4,0.3-4.6,0.9s-2.2,1.4-3,2.3c-0.7,0.9-1.3,1.9-1.6,2.9c-0.3,1-0.5,2-0.5,2.8h18.9C32.3,32.7,31.3,30.5,29.9,29z"/>
		<path d="M51.8,36.5h20.5v4.7H51.8V36.5z"/>
		<path d="M77.2,26.8V19h7v-3.3c0-3.8,1.2-6.8,3.5-9.2c2.4-2.4,5.9-3.6,10.7-3.6c1,0,2.1,0,3.1,0.1s2.1,0.1,3,0.2V12
			c-1.4-0.2-2.8-0.3-4.3-0.3c-1.6,0-2.7,0.4-3.4,1.1c-0.7,0.7-1,1.9-1,3.7V19h8v7.8h-8v34.6H84.2V26.8H77.2z"/>
		<path d="M120.9,2.9v58.5h-11.7V2.9H120.9z"/>
		<path d="M158.8,61.5v-5.9h-0.2c-1.5,2.5-3.4,4.2-5.8,5.3c-2.4,1.1-4.8,1.6-7.2,1.6c-3.1,0-5.7-0.4-7.7-1.2s-3.6-2-4.7-3.5
			c-1.1-1.5-2-3.3-2.4-5.5c-0.5-2.2-0.7-4.6-0.7-7.2V19h11.7v24c0,3.5,0.5,6.1,1.6,7.9c1.1,1.7,3,2.6,5.8,2.6c3.2,0,5.5-0.9,6.9-2.8
			c1.4-1.9,2.1-5,2.1-9.3V19h11.7v42.5H158.8z"/>
		<path d="M175.6,19h13.3l7.5,11.1l7.4-11.1h12.9l-13.9,19.9l15.7,22.6H205l-8.9-13.4l-8.9,13.4h-13l15.3-22.3L175.6,19z"/>
	</g>
</g>
</svg>
